<svg xmlns="http://www.w3.org/2000/svg" xmlns:xlink="http://www.w3.org/1999/xlink" viewBox="0 0 1518 1126"><style>.regions{fill:#6ab023}.rect{fill:none}.text{font-family:&apos;bebas-neue&apos;,sans-serif;font-size:28px}.pin,.text{fill:#00643b}a[id^=region-]:hover .pin{fill:#762b85;pointer-events:all}</style><g id="regions-map"><path class="regions" d="M1454.3 562l.3-.4-.3-.4v-.2h.1v-.2h-.1v-.4h-.2v-.4h-1.2v-.5h.2v-.4h.1v-.2h-.1v-.2l.3-.5h-.4l-.2-.3v-.5h-.2v-.4h-1.7v-.1h.2v-.6h-.2v-.1h.2v-.4h.7v-.6h-.2v-1.1h-.3l-.2-.4h-.7v.4h-.2v.1l-.3-.5h-.2v-.4h-.5v-.8h-1v.4h-.5v-.4h-.2v-.1h.1v-.2h-.1v-.4h-.5l-.2-.4h-.9l-.2-.7-.5-.8v-.8h-.1l.1-.1h.3v-.8h.5v.4h.8l-.2-.4h.5l-.4-.6h-1.3l-.2.4h-.5v.4h-1v.8h-1v.4h-.2v.8h-.2v.4h-.5v.4h-3.9l-.2-.4h-.2v-.1h.5v-.6h-.7v-.4h-1.5v.4h-.2v.4h-.2v.4h-.2v-.4h-1.2v.4h-.2v.1l-.3-.5h-.7v.4h-.5l-.4-.7v.7h-1v-.4h-1v.1l-.4-.6-.3.5v-.4h-1.7v.4h-1.5l-.4-.7v.7h-.4l-1 .8h-.2l-.8.4-.9.8-.7.4v-.8l-.4.7h-.2l-.2.4h-.3v.8h-.2l-.2.4h-.3v.4h-.7l-.2.4h-2.7v-.4h-.5v-.7h-2.4v.4h-.5v.4h-2.4v.4h-1l-.2-.4h-.2l-.2-.4h-.6l-.2.4v-.4h-1.5v.4h-.2v.4h-.2v.8h-.4l-.6.4v.3h-.7v.1-.1h-.4v.2h.1v.1h-.4v.2h.1v.1h-1v-.4h-.5v.4h-2.1l-.2.4h-4.6v-.4h-.3l-.5-.8h-1.1v-.4h-3.6v.1-.1h-.5v.4h-1.1l-.2.4h-.2l-.2.4h-.8v.4h-.7l-.2.4h-.2l-.5.4h-.3l-.2.3-.4-.6v.9h.2v.1h-1.4v.4h-2.2l-.4-.7v.7h-1v-.3h-.2v.3h-.2v.1-.1h-.2v-.4h-.7v.4h-.2v.4h-.7v.3l-.6-.3-.3.4h-1.4l-.3.4-.7.4h-1.1l-.6-.5v.2-.1h-1.1v-.4h-.5v-.4h-1l-.2-.4h-1l-.3-.5-.3.5v-.4h-2.2v-.2h-.7l-.1.1-.3-.5h-4.1v-.7l-.4.7h-.9l.2.4h-.4v-.4h-.1l.2-.4h-.8v.4h-1.4v.4h-1.7v.4h-.8l.2-.4h-.9v.2h.1v.1h-1.1l-.2.4v-.4h-2.4l-.2.4h-.5v-.3h-.2l-.1-.1h-1.2v.4h-2l.2.4h-.6l-.2.4h-1.2l-.2.4h-.5l-.2.4h-.5v-.4h-.4l-.2.4h-1.7v.4h-.9l-.2.4h-1.5v.4h-.3l-.2-.3v-.5h-.5v.9l-.2.3h-1l-.2.4h-.7v.1-.1h-.5v.4h-5.7l-.2.4h-2.4v-.4h-1v-.7l-.2.3h-.3v-.7l-.4.7h-.5v.4h-.3l-.4-.7v.7h-2.2l-.2-.3v-.9h-.2v-.4h-.5v.4h-1.9l-.2.4h-3.6l-.5.4h-.5l-.2.4h-.2l-.5.4h-.1v-.8h-.5v.8h-1.9l-.2.4h-.4l-.9-.4h-.6v-.4h-1.9l-.2.4h-.5v-.1h.1v-.2h-.1v-.2l.3-.5h-.5l-.5.4-.2.4h-.3l-.2-.4h-.9v.4h-.2v.4h-.1v.2h.1v.5h-.4l-.5.4h-.6v.4h-.5v-.4h-.5v.4h-1.4v.4h-.5v.5l-.2.3h-.5l-.2.4h-.2l-.2.4h-2.2v.1-.1h-.7v.4h-.9v-.4h-.5v.4h-5.2v.1-.1h-.2v-.7l-.2-.4v-1.1l-.2-.4v-.9h-.2v-.6h-.2v.3h-.3l.3.5v.9h.2v.1h-.3l.3.5v1.2h.2v.1h-.2v.4h-1.2v-.4h-.5v.8h-.2v-.4h-.2v-.1h-.2v.3h-.5v.8h-.4v.1-.2h-.7v1.2h-1v.4h-.5v.4h-.5v.4h-1.4l-.2.4h-.5l-.2.4h-.5l-.2.4h-.7v.1-.1h-.7l-.2.4h-.3v.4h-.5v.4h-.2v.4h-.4l-.2.4h-.3v.4h-.8l-.2-.4h-.2v-.6h-1.5v.6h.7v.2l-.1.2-.2-.3h-.4v.4h-.2v-.4h-2.2v.4h-.2v-.4h-.5v.8h-.2v.4h-2l-1.7-.4h-2.6l-.2-.4h-.4v-.1h.2l.2-.4h.2l.3-.5v-.3h.2l.3-.9v-.5h-.4l-.2.4h-.5l-.5.8h-.5l-.2.4h-.5l-.3.4-.4.3h-.2l.1-.2v-.4l.2-.3h.3v-.5l.7-1.2v-.4l.5-.8v-.4l.2-.4v-.4l.2-.8v-2.5h-.2v-.4h-.3l-.2-.3-.7-.8-1.6-2.1-1.3-1.8h-.2v-.1h.2v-.4h.2v-1.5h-.2v-.7l-.4.7h-.3l-.4-.7v-.4l-.3-.4-.2-.8-.5-.4v-.3l-.2-.4v-.4l-.2-.4v-.5h-.2v-.6l-.2-.8-.2-.4v-.4l-.7-1.2v-.5h-.2v-.4h-.2v-.3l-1-1.6h-.9v.4h-.5l-.7-1.2h-.5l-.2-.4h-.2l-.2-.4h-.2v-.4h-.5v-.1l-.8-.4-.2-.4-1.5-1.2-.7-.4-.7-.8h-.2v-.4h-.3l-.2-.4h-.2l-.2-.4h-.2l-.4-.7-.5-.4-.3-.4h-.2l-.2-.4h-.3l-.5-.4h-.2l-.4-.3-.3-.4h-.2l-.2-.4-.7-.4-.3-.4h-.2l-.2-.4h-.2l-.2-.3-.5-.4h-.2l-.2-.4h-.2l-.2-.4h-.7l-.2-.4h-.2v-.4h-.5l-.2-.4h-.7v-.4h-.8l-.2-.4h-1.4v-.4h-1l-.2-.4h-1.2l-.2-.4h-1.1v-.4h-5.3v-.4h-1.4v-.4h-1l-.2-.4h-1.4l-.2-.4h-1.4l-.2-.4h-1.2l-.2-.4h-1.9l-.2-.4h-1.9l-.2-.4h-1.9l-.2-.4h-1.4l-.2-.4h-1.4l-.2-.4h-.7v-.4h-.7v-.4h-.3l-.2-.4h-.2v-.4h-.5l-.2-.4h-.3l-.4-.3v-.4h-.5v-.4h-.5l-.2-.4h-.2l-.2-.4h-.2v-.4h-.3l-.2-.4h-.7l-.2-.4h-.9v-.4h-.7v-.4h-1.2v-.8h-.5v.2h-.4l-.2.4h-.5v.4h-1.2v-.4h-1v-.4h-.2v-.1h.1v-.2h-1.6l-.2-.4h-.5l-.2-.4h-1.4v.4h-3.2l-.2-.4h-2.1v.4l-.2-.4h-1.7l-.2-.4h-1l-.5-.4h-.4v-.5h.1v-.2h-.6v.4l-.2-.4h-.4v-.4h-1.3l-.2-.4h-.7l-.2-.4h-.7l-.2-.4h-.4v-.4h-1v-.4h-1.8l-.5-.4h-.2l-.2-.4h-.2l-.2-.4h-.3l-1-.8h-.2l-.2-.4h-.2l-.2-.4h-.2l-.2-.3.2-.7.5-1.2.2-1.1.2-.4.3-.8.2-1.5.2-1.9v-1.6l-.2-1.6-.5-1.5-.7-.8-.5-.8h-.4v-.4h-.3l-.2-.4h-.4v-.2h-.5l-.2-.4-1.5-.8h-.5l-.5-.4h-.6v-.4h-.8l-.7-.4-.5-.4h-.7l-.2-.4h-.3l-.7-.4h-.4v-.4h-.8l-.2-.4h-.5l-.9-.4h-.2l-.2-.4h-1l-.2-.4h-1.7l-.5-.4h-.2l-.2-.4h-.2v-.4h-.8l-.2-.4h-1l-.5-.4h-.7l-.5-.4h-1.1v-.4h-1v-.4h-.2v-10.4h-.8l-.8.4h-3.1l-.9-.4h-3.9l-1.5.4h-1.7l-1.2.4-.9.4h-1.4l-.8.4h-1.9l-.5.4h-8.8l-.7-.4h-3.4l-.7-.4h-1.9l-.5-.4h-.6v.4h-.7l-.2.3-.2-.3h-4.1l-.6.3v-.3h-.7l-.2.4h-3.4v-.4h-5.8l-.5-.4h-1.2l-.2-.4h-4l-.2.4h-3.3l-.5.4h-1.6l-1 .4h-.8l-.2.4h-1.2l-.5.4h-1l-.2.4h-1.7l-.5.4h-.1l-.2-.4h-3.7l-.2.4h-.9l-1 .4h-.3l-.5.4h-.7l-.8.4h-1.2l-.2.4h-.4l-1.2.4h-.8l-.2.4h-.8v.4h-.7v.4l-.6.3h-.3l-.2.4h-.2l-.7 1.2-.5.4-.5.8-.5.4-.5.8-1 .8v.3h-.2l-.3.5v.4l-.4 1.1h-.2l-.5 1.2-.2.4-.2.8-.3.4v.8l-.2.8-.2 1.5-.5 2.3-.5 1.5-.7 2.7v.4l-.5 1.5-.7 1.2v.4l-.5.8v.3h-.2v.4h-.2v.4h-.5v.4h-.4l-.2.4h-.7l-4.9 1.9-.7.4-1.2.4h-.7l-.8.4h-.4l-1 .4-.5.4h-2.4l-.5.4h-22.2l-.7-.4h-1.9l-.2-.4h-1.2l-.2-.4h-.7l-.2-.4h-.4v-.4h-.5l-.2-.4h-.2l-.5-.8h-.2l-.5-1.4-.2-.4v-.5l-.7-1.2-.2-1.1-1-1.6-.2-.8-.3-.5h-.2v-.3l-.3-.5h-.2v-.4h-.3l-.2-.8h-.3l-.5-.8h-.5l-.4-.3-.2-.3v-.1h-.1l-.2-.3v.3h-.5l-.2-.4h-3l-.5.4h-1l-.2.4h-.2l-.3.4-.5.4-.3.4-.5.4-1.2 1.2-.7 1.1h-.2l-.7.8-.5.4-.3.4v.4l-.4.3h-.3l-.2.4h-.2l-.3.4-.7.4h-.4l-.8.4h-1.8l-.2-.4h-1.2l-.2-.4h-.7v-.4h-.5l-.2-.4h-.5l-.5-.8h-.2l-.2-.3-.5-.4h-.2v-.4h-.3l-.2-.4h-.4v-.4h-.7v-.4h-.6l-.5-.4h-.2l-.2-.4h-.5l-1-.8h-.2l-.7-.8h-.2l-.5-.4-.7-.4-.7-.8h-.2l-.5-.4h-.2v-.4h-.3l-.7-.7-1.2-1.2h-.2l-.7-.7-1.4-1.1v-.4l-.8-.4-.5-.4-.3-.4h-.2v-.4h-.3l-.2-.4h-.2l-.2-.4-.8-.4-.8.4-.5.7h-1.4l-.5.9v.5h.2v.9h-.4l-.2.4h-1v.4h-.2l-.3.5v.9h.2v.1h-.2l-.5.8h-.2l-.2.4h-.3v.6h.2v.3l.3.5h.2l.2.4h.2v.6l-.2.7-.3.4v2.6h-.4l-.5.4h-.6v.4h-.2l-.2.4h-.5v.5l-.2.3h-.3v.4h-.3l.3.5v.3l-.2.4v.5h.5v.2l-.2.4v.3h-.2v.1h-.2v.3h-.5v.4h-.2v.4h-.5v.4h-1v-.4h-.5v.4h-.9l-.5.8h-.3l-.2 1.2h-1v.2l-.5-.4v1.7h-.2v.4l-.4.3h-.3l-.2.4h-.2v.1-.4l-.4.7h-.8v.4h-.2l-.2.3-.4-.6v.4l-.1-.2-.3.5-.6.7-.4-.3h-.2v-.4h-1v.4h-.2l-.8 1.2-.3.8v.3h-.2v.5l-.2.4v.3h-.2v.5l-.5.8v2.2h-.2v.6h.1l-.1.2v.3h-.4l-.3.8v-.1h-.5v-.4h-1.2v.1-.5h-.5l-.2-.4h-1.2v1.2h-.2v.4h-.2l-.3.5v.8l-.2.8v.9h.2v.1h-.2v1.2h-.2l-.5.9v.5h.3l.4.3.3.4h.2v.5h-1.4v1.3l.2.4v.2h-.2v.4h-.2l-.3.5v.7h-.3l.4.6.7.4h.9v.1h-.2v1.2h-1.7v.4h-.3l.4.6h.4v.4h.2v.4h.7v.3l.3.5h.2l.4.7v.5h.2v.4h.2v.4h.2v.3l.2.4v.8l.2.4v1.2l.2.4v.9h.2v.4h.2v.3l.5.9h.2v.4h.2v.1h-4.6l-.5-.4h-.6v.4h-.3l.6 1h.4v.5h-.2v.5l-.2.4v.5h.3l.1.1h-.1v.5l.3.5h.2v.1h-.2v1.8h.2v1.3h-.2v1h.5v.8h.6l-.2.4h.6v.2l-.2.4v1.1h-.4l-.3.4-.5.4v.5l.5.4v.4h.2l-.5 1.5h.4l.4.3v.3l-.2.3h-.1l-.5-.9-.4.6v.4l-.2.3-.6.4.3.5h.1l-.4.6-.2.8-.5.4-.4.6h.3v.1h-.2v.4h-.2v1h.5v.1h-.2v1.4h.4l-.2.6v.4l-.2.4v.4l-.2.3h-.3v1.2h-.5v1.6l-1.1.6h.6v.1h-.5v.4h-.2l-.6 1h.6v.1h-.5v.4h-.5v.4h-.5v.6h.5v.5l-.2-.4h-.7v-.4h-2.2l-.5-.4h-1.3l-.5.4h-.3l-.2.4h-.5l-.2.4h-1.3v.8h-.2l-.3.5v.8l.2.4v.5h.5l.2.6-.2.4.3.4v.8l.2.4v.4l.5.9h.2l.1.1h-.1l-.3.5v.3h-.2l-.5.8h-.5v.8h-.4l-.5.4-.3.4-.2.7h-1l-.2-.4h-.4v.5l-.2.3h-.6l-.2-.4h-1.1l-.3.5v.3h-.2l-.2.4h-1v.8h-.2v.5l-.2.3h-.2l-.7 1.2h-.2l-.2.4h-.2l-.5.4h-.3v.4h-.7v.4h-.7v.4h-.7l-.2.4h-.3v.5l-.2.3h-.3v.4h-.2l-.4.6h.3v1l-.2.4v1.1h-.2v.5l-.2.4v.5h.2v.8h.2v.1h-.2v.5l.2.4v.3l-.2.3h-.5v.5l1 1.6.2.7v.9h.2v.4h.2v.4h.3l.5.8h.2v.4h.3l.2.1v.4h-.4l-.8.8-.3.4v.4l-.2.3h-.5v.4h-.7v.4h-.7l-.2.4h-3.9v.4h-.6l-.8.4h-1.2l-.2.4h-1.9l-.2.4h-.3v-.4h-.2v-.8h-.2v-.4h-.2v-.9h-1.2v-.4h-.5l-.2-.4h-.2v-.4h-2.6v.4h-.2l-.2.4h-.5v-.2l.2-.4v-1.4h.2v-1.2h.2v-.6h-.2v-.4h-.2v-1.1l-.2-.4v-.5h-.2v-.4h-.5v-.4h-.5l-.5-.8h-.2l-.5-.8h-.2l-.2-.3-.5-.4h-.2l-.3-.5-.3.5h-.2l-.5.8h-.2l-.2.4h-.2l-.2.4h-.2l-.5.8h-.3v.4h-.2l-.3.5v.3h-.2v1.2h-.2l-.3.5v.4l-.2.3h-.2l-.3.5v.4l-.2.4v1.1h-.2v.9l-.2.7-.2.3h-1.3l-.2-.3v-.4l-.2-.4v-.8l-.2-.4v-.8l-.2-.4v-.9h-.2v-1.2h-.2v-.8h-.2v-1.4l-.1-.2v-.2h-.1v-1.2h-.2v-.4h-.2v-1.2h-.2v-.1h.3l-.6-.9v-.6h.2v-.4h.2v-1.6l.2-.4v-.4l.3-.9h-.8v.4h-.9v-.7l-.2-.4v-.4l-.2-.4v-1.5l-.2-.4v-.7l-.2-.8-.2-.4v-1.2l-.2-.4v-.8l-.2-.4v-.6l-.6.5h-.6v-.3l-.5-.9h-.2l-.4-.7-.5-.4-.3-.4h-.5l-.2-.3-.5-.4h-1.1v.4h-.1v.2h.1v.1h-.4l-.8.8v.7h-.5v-.7l-.3-.5h-.2l-.2-.4h-.2v-.3l-.5-.8v-.2l-.5-.9h-.2v-.3l-.5-.9h-1.2l-.2-.4h-.6l-.2.4h-.8v.4h-1.7l-.2-.4h-.7l-.2-.4h-.6l-.3.4-.5.4v.3h-.2v.4h-.2v.8h-.2v.5l-.2.3-.4.3h-1.5l-.2.4H851v.5l-.2.3h-.3v.5l.2.4v.5h.5v.3l.5.8v.4l.2.4v1h-.9l-.3.5v.7h-.2v.8h-.7l-.2.4h-.2l-.2.4h-.1l-.2-.4h-.6l-.5.8h-.2l-.2.4h-.8v.4h-.4l-.2.4h-2.7l-.2-1.5h-1v.4h-1.2v.4h-1.4v1.2h-.5v.4h-.2l-.2.4h-.7l-.2.4h-.2l-.4.6h.4l.4.7.3.8h.2v.3l.2.3-.2.3v.7h-.2l-.2.4h-.2l-.8.4-.5.4-.3.4-.4.3h-.4l.3.5v.2h-.3l.3.5v.2h-.2v.4h-.2v.4h-.4l-.4.6h.3v.6l-.2.3-.9.4-.2.4h-.1l-.2-.8h-.4l-.6.4v.5l.3.5h.4v.4h.2l-1.6 1.3h-.6v.4h-1v.4h-.2l-1.2.8-.9.7h-.3v.4h-.4l-.2.4h-1.8l.2.4h-.1l-.3.5v.3h-.2v.4h-.2v.4h-.1v.2l-.1.2v.7h-.2v.4h-2.4l-.5-.8h-.2v-1.1l-.3-.5h-.2l-.4-.7-.5-.4-.2-.3v-.5h-.2v-.3l-.2-.4v-.2h.2v-.6h-.5v-.3l-.3-.5h-.2l-.2-.8h-.2v-.5l-.5.4v-.6l-.3.5-.2-.5v-.4l-.3-1.1-.3.6h-.5l-.2.4h-1l-.3-.9-.6.5h-.3l-.2.4h-.4l-.5-.4h-.9l-.2-.4h-.3l-.5-.4h-.3l-.7.3-.2-.3-.5-1.1v-.4l-.3-.2 1-.8.4-.6h-1.1v-.4l.2-.2.2-.8.2-.4.3-1h-1.1l-.2-.4h-.2v-.2l.2-.8v-.8l-.7-1.2v-.4l-.3-.5h-.2l-.2-.3v-.5h-.2v-.8h-.2v-.2l1.3-.4 1.1-.9-1.1-1.7h-.4l-.4.3-.6-.7-.3-.4h-.2l-.2-.3.3-.5h-.4l-.2-.7v-.2h.2v-.4h.8l-.6-1.4-1.1.4-1.2.4h-.3v-1.1l-.4.7h-.8l-.2-.3v-.4l-.2-.4v-1.2h-.5v-.4h-.3l-.2-.3-1-.8-.3-.4h-.3l-.4-.3-.3-.4h-.2v-.3l-1-.8h-.2l-.2-.4-.7-.4-.3-.4h-.2l-.2-.4h-.5l-.2-.4-1-.4h-.5l-.6-.3v-.1h-.2l-.2-.1v.1h-.7v.5l-1.1 1.8h-1l-.3.4-2.3 1.5h-.3l-.2.4h-.3v.4h-.5l.3 1.3.2.4-.2.6h-.2l-.3.4-.2.7h-.2l-.5.4h-2l-.7-1.1-.5-.4-.7-.8-.4-.3v-.4h-.3l-.5-.8h-.2l-.1-.2.6-.3.2-.4h.3v-.4h.2v-.4h.2l.5-.8h.5l.6-.5-.2-.3h.3l.5-.8h.2l.2-.4h.5l.3-.5v-.8l-.2-.6h.1v.4h-.1v-.3l-.2-.4v-.3l-.2-.4v-.4l-.2-.4v-.5h-.2v-.1h.1v-.2h-.1v-.4h-.7v-.1h.2v-1.4h-.2v-1.1l-.2-.4v-1.2h-.2v-.8h-.2v-.4h-.2v-.4h-.2v-.3l-.5-.8v-.5h-.2v-.2l-.8-.4-.5-.4h-.2l-.5-.8h-.2l-.2-.4h-.4l-.2.3-.4-.3-.2-.4-.5-.4h-1.8v.4H773l-.2-.3v-.3l.2-.4v-5.1l-.2-.4v-2.4h-1.6l-.5.4h-.5l-.2.4h-2.5l-.5-.4h-.9v.8h-.2l-.2.8h-.5l-.3.5v.3h-.2l-.3.4-.7.4-.5.4-.2.4h-.5l-.2.4h-.2l-.2.4h-.5v.4h-.2v.4h-.2v.4h-.2l-.2.4h-.3v.4h-.2v.4h-.2v.4h-.9l-.2.4h-.3v.4h-.2v.4h-.2v.4h-.5v.4h-.5v.4h-.2l-.2.4h-.3v.4h-.2v.4h-.2v.4h-.6l.4.6h.5l.2.4h.1l-.6.9-.4.3h-.3l-.5.9v.3h-.2v.4h-.2v1.2h-.2v.4h-.2v.4h-.2v.8h-.2l-.2.4h-.3v.4h-.2v.4h-.2l-.5.8h-.2l-.2.4h-.3v.4h-.2l-.3.5v.3h-.2v.5l-.2.4v.4l-.2.3h-.2l-.8 1.2v.7h-.2v1.2h-.2v1.4h.2v.9h-.2v.5l-.2.3h-.2l-.2.4h-.2l-.2.4h-.3v.5l-.2.3h-.5v.4h-.7v.4h-.4l-.5.8h-.2l-.3.5v.3h-.2l-.2.4h-.2l-.2.4h-.2l-.2.4h-1l-.2.4h-.8v.4h-.9v-1.7l-.4.7h-.1l-.2-.4h-.2l-.2-.3v-.5h-.2v-.5h.2l.2-.4h.3v-.9l-.2-.4v-2.2l.2-.4v-3.5l.2-.4v-.4l.2-.4v-.7h.1v-.2h-.4v-.3l-.2-.4v-.4l-.5-.8v-.9h-.1l.1-.2v-.1h.2v-.8h.2v-.5l.4-.7h.2l.5-.8h.5l1-1.6v-.3h.2l.3-.5v-.4l.2-.4.2-.8.2-.4v-.8l.2-.4v-.4l.2-.8V567l.2-.4v-1.4h.2v-.8h.2v-.4h.2l.5-.8h1.4l.2-.4h.7l.5-.9v-1.1h.3l-.4-.6-.2-.7v-.5h-.5v-1.1l-.2-.4v-.9h-.2v-.8h-.3l-.1-.1h.5l-.3-.5v-.5h-.2v-.3l-.5-.4v-.6l-1.3.8-.2-.2v-.3l.2-.3h.2l.2-.4h.3v-.6h-.2v-.4h-.3l-.4-.7v-.5h-.2v-.4h-.7v.4h-.4l-.2.4h-.7l-.2.4h-.5l-.5.4h-.4l-.2-.4h-.7v-.4h-.2v-.3l-.5-.4-.7-1.1v-.5h-.3l-.7-.7-.5-.8h-.2v-.4h-.3l-.7-1.1v.2l-.5-.9h-.2v-.4h-.3l-.2-.4h-.7l-.2-.4h-.5l-.5-.8h-.2v-.4h-.5l-.2-.4h-.4v-.4h-.2v-.4h-.5v-.4h-.5l-.2-.4h-.2l-.5-.8h-.2v-.3l-.6-.4h-.5l-.2-.4H725v.4h-.7l-.2.4h-.5l-.3.4-.4.4-.9.4h-.3l-.2.4H720v.4h-1l-.5-.4h-.6v-.8h-.2v-.4h-.6l-.5-.4h-.6v.4h-.5v-.4h-.2v-1.1l-.2-.4v-.6h1.7v-.6h-.1l.2-.4h-.3v-1.8l-.4-.6h.4v-.6l-1.2-.8-.4-.3v-.4h-.7v-.4h-1v-.4h-2.9v.4h-1.2v.4h-.5v-.4h-.3l-.5-.4h-.2v-.8h-.2v-.8h-.5v-.3l-.2-.4v-.5h-.9l.2-.7-.7-.4.2-.4-1.1-.4-.6-.3.3-.5h-.6v-.4h-1.2v.4h-.7v.4h-.6l.2.4h-1.6v.5l-.2.3h-.5l-.2.4h-1.6l-.5-.4h-.5l-.7-.4h-.5l-.2-.3v-1.2h-.2v-.2l.2-.4v-.9h-3.1v-1.4l.2-.4v-.4l.2-.8v-.6l-.9.5h-.7l-.5.4h-.4l-.8.4h-.8v-.6l.2-.4v-.6l.3-.4-.3-.5h-.3l-.4-.3V515h-1.7v-2.1h1v-1.6l.2-.4v-.5l-.3-.5h-.2l-.2-.4h-1.7l-.2-.4h-2.2l-.5-.4h-.9v-.4h-.3l-.6-.9v-.2h-.1v-.4h-4.6l-.2-.4h-.9v-.3h-.5l-.2-.4h-.9v-.4h-.2v-.2l-.3-.5h-.2v-.4h-.2v-.4h-.3l-.2-.4h-.5l-.2-.4h-1l-.2-.4h-1.9v.4h-1.2v-.5h.2v-.4h.5v-.4h.2v-.4h.2l.3-.5v-.3h.2v-.4l.2-.4v-.4l.2-.4v-1.1h.2v-1.2l.2-.4V495l.2-.4v-.4l.2-.4v-.3h.2v-.4h.2v-.5l.9-1.4h.3v-.6h-.2v-.1h.1v-.2h-.2l-.1-.1h.1v-.8h.5v-.6h-.1l.1-.1h.8v-.4h.2v-.5l.2-.3h.2v-.2h-.1v-.5h1.2v-.4h.2l.2-.4h.3v-.4h.2v-.4h.2v-.5l.2-.4v-.9h-.2v-.1h.2v-.6h-.5v-.1h.2v-.4h.2v-.4h.5v-.4h.5v-.8h.2v-.4h.2v-.4h.1v-.2l.2-.4h-.3v-.1h.1v-.2h-.1v-.1h.2v-.4h.2v-.4h.2v-1h-.2v-.1h.1v-.2h-.1v-.4h-.2v-.4h-.2v-.4h-.2v-.4h-.5l-.2-.4h-.2l-.2-.4h-.4V473h.3l-.6-1h-.2v-.4h-.2v-.3l-.2-.4v-.7l.2-.4v-.3h.2v-.4h.2v-1h-.2v-.2l.2-.4V465h-.2v-.5h.5v-.4h.2v-.8h.2v-.6h-.2v-.3l-.2-.4v-1.2h-.2v-.4h-.2v-.5h.2v-.6h-.5v-.3l-.3-.5h-.4v-.4h-.2v-.8h-.3l-.2-.3v-.6h.2v-.5l.2-.3h.3v-.4h.2v-.4h.5v-.6h-.2v-.1l.2-.4v-.4l.2-.4v-.5h-.2v-.5h1v-.8h.5v-.4h.2v-.9l.2-.3h.3v-.4h.2v-.4h.5v-.4h.7l.2-.4h.3v-.5l.7-.8.2-.4v.4l.4-.7h.3v-.8h.2v-1.2h.1v-.2h-.1v-.5h.1v-.2h-.1v-.4h-.2v-.4h-1l-.2-.4h-.2v-.1h.1v-.2h-.1v-.4h-.3l-.4-.3v-.3l.2-.4v-.5h-.3l-.1-.1h.1v-1h-.5l-.2-.3v-.6h.2v-.6h-.2v-.5h.2v-1.4h-.2v-.4h-.2v-.7l-.1-.2h.4v-.4h.2v-.6h-.5v-.4h-.8l-.2-.4h-.2v-.4h-.2v-.4h-.2v-.9h.2v-.9l-.2-.4v-.5h-.2v-.4h-.3l-.2-.4h-.2v-.4h-.5l-.2-.4h-.2l-.4-.7v-1.5l-.5-.9h-.2v-.4h-.2v-.7l-.3-.5h-.2v-.8h-.2v-.1h.2V420l-.2-.4v-1.2h-.2v-.3l-.2-.8v-.9h-7v-.4h-.5l-.2-.4h-.2v-.4h-.2v-.1h-.2v-.3l-.2-.4v-.6h.3l-.4-1.3v-1.2h-.2v-.4l-.2-.4v-1.1h-.2v-.4h-.2v-.8h-.2v-.4h-.2v-.4l-.5-.7h-.5v-.8h-.2v-.4h-.2v-.4l-.2-.4v-1.5l-.2-.4v-1.5h-.2v-1.9h-.3l-.3-.8-.5-.8v-.4l-.2-.4v-1.2l-.2-.4v-1.2l-.2-.4v-.1h.2v-.4l.6-.9-.6-.9h-1.5v-1.3h.2v-.8h.2v-.7h.5v-.6l.7-1.2h.1l.6-.5.4-.5.3-.9v-.8l-.9-.5-.4-.3-.4-.6v-.1h1.4l-1.5-1.2-.1-.2v-1.1h-.2v-2.3l-.1-.1h1.3v-1.1h.2l1.5 1.7.4.6h.3l.7 1.2.5-.8h.5l.5-.7v-1.3l-.2-.8.2-1v-.4l.4-1.3h-.2l.3-.5.8.3h.1l.5.8h.2l.7 1.1.6-1.8v-.4l.5-.8h.1l.6-.5.2-.3h.5v-.4l.5-.7v-.1l.7-.7h.5v-1.4h-.2v-.8h-.2v-.8h-.2l-.2-.4v-.7h-.5l-.2-.4h-.2l-.3-.4v-.9h-2.5l-.1.1-.1-.1h-2.9v.4h-.2v-.5l.2-.4v-2.3l-1 1.6h-1.1l-.5.4h-.8v-.4h-1.8l-.2.8h-.9l-.2.4-1.3-.4h-1.3v-.8h-.1l.5-.8h-1.4v-.4l-.2-.2.2-.2v-.8h.1l.1-.3.4-.7h-.2l.2-.5h.4v-.4l1.2-1.9h.2v-1.4l-.2-.2.6-.9h-.6l-.2-.4v-.7h-.5l-.2-.4h-.2l-.2-.4v-.5l.2-.4v-.7l-.2-.4v-.4l-.7-1.1h-1.2v-.4h-.7l-.2-.4h-.3l-.3-.2-.8-1.3v-.7h-.2v-.4h-.5v-.4h-.5v-.4h-.2v-.5h-.5v-.4h-.2v-.9l.6-1h-.4v-.5h.2v-.8h.2v-.4l.3-.4h.5l1-1.5h.5v-.4h.5v-.4h.6l.5-.4h.3l.5-.7v-1h-.2v-.5l.2-.3h-.2v-.2l-.2.2h-.3v-.4h-.2l-.3-.5v-.1h.1v-.7l.3-.4h.1l1.7-1.4h-1.9l-.1-.1-.4-.4h.2v-1.4h-.2v-.4h-1.3l-.2.4h-.4l-.2-.3.2-.2-.5-1.4h-.1v-.4h-1.5l.1-.1v-1h-.2v-.9l-1.2.9h-1.3v.4l-.3.4h-.5l-.7 1.2h-.2l-.3-.2-.3-.5h-.2l-1.5-2.4-.2-.7-.2-.4v-.4l-.7-1.1v-.4h-.2v-.5h-.5v-.4l-.2-.4v-.8l-.5-.8v-.8l-.5-.7h-2.6l-.5.4h-3.7l-.2.4h-.5l-.2.4h-.2l-.2.4h-1.9v.4h-.2v.4l-.3.4h-.2v-1.6l-.5-.7h-.2l-.2-.4h-.5l-.2-.4h-1v-.4h-.5v-.4h-.7l-.2-.4h-1.5l-.1.1-.1-.1h-.2l-1-1.6v1.6h-.3l-.5.8h-2.1l-.2-.4h-2.2l-.2-.4h-.5l-1.1-1.7h.2l-.9-1.4h-.3l-.5-.3v-1.7l-.8 1.2h-.4l-.1-.1-1.5-1.2-.3-.5h-.2l-.2-.4h-.2l-.2-.4h-.7l-.2-.4h-1.4l-.2-.4h-.5l-.2-.4h-.2l-.2-.4v-.4h-.5v-.4h-.5l-.2-.4H600.8v-.3h-.2v-.4h-.2v-.3l-.2-.4v-1.6h-.2v-.8h-.2v-.6l.2-.4v-.4l.2-.4v-.8l-.2-.4v-.5h-.2v-.4h-.2v-.4h-.3l-.2-.3v-.9h-.1l.1-.2v-.5l-.2-.4v-.4l-.5-.8v-.5h-.2v-.3l-1-.8-.3-.4h-.3l-.9-.7-.3-.4h-.4v-.4h-.5v-.1h.9l.2-.4h.7l.5-.4h.5l.2-.4h.4l-.6-.9v-.5h-.1l.4-.6-1.5-2.4-.5-.4-.3-.8h-.2v-.3l-.8-.8h-.2v-.2h-.3l-.2-.4h-.2v-.3l-.2-.4v-.5h-.2v-.4h-.3l-.2-.3v-.5h-.2v-.4h-.2v-.4h-.2v-.4h-.5v-.4h-.3l-.7-1.1v-.4l-.2-.4v-.5h-.5l-.5-.8h-.2v-.3l-.3-.5h-.4v-.3l-.5-.4-.3-.4h-.2l-.5-.8h-.7v.5l-.2.3h-.3v.4h-.2v.4h-.2l-.2.4h-.7l-.8.4h-.3l-.5.4h-.6v-.4h-.7v-.4h-.5l-.2-.4h-.2v-.4h-.2v-.4h-.3l-.5-.8h-.2v-.4h-.3l-.2-.4h-.2v-.8h-.2V270h-.2v-.8h-.2v-.4h-.2v-.4h-.2v-.3l-.3-.5h-.2l-.4-.7-1.4-1.1.1-.2h.3v-.5l-.2-.4v-.5h-.3l-.2-.4h-.2v-.4h-.5l-.2-.4h-.2l-.4-.7-.5-.4h-.2l-.2-.3v-1.2h-.2v-1.3h.4l.2-.4h2.5l.2.4h.4v-.5l.2-.3h.3v-.4h.2v-.5l.5-1.5v-.3h.2l.2-.4h.3v-.5l.2-.3h.2l.2-.4h.8v-.4h.5l.2.4h1.3l.3-.5v-2.1h-.2v-.3h.2l.5-.8h.3v-.4h.4l.2-.4h.5l.5-.4h2.2l.1-.1.5.8v.5h.3l.5.8h.7v-.4h.4l.2-.4h.2l.2-.4h.3v-.4h.2v-.4h.2l.2-.4h1.8l.8 1.3.3-.5h.5v.3l.5.8.5 1.1v.4l.5.8v.9h.3l.2.8h.1l-.6.9-.8.4v.4l-1.1 1.8h-.3v.5l-.8 1.3h.4l.9.4h.8l.3-.5.3.5h.2l1 1.5h.2l.4.7v.5h.3l.2.3v.8l.2.4v.3l.2.8v.4l.3.5h.2l.2.3v.5h.2v.8h.2v.3l.2.3-.3.5h.3v.8h.2v.3l.3.5h.2v.3l.8 1.2h.2v.4h.2v.4h.2v.4h.2v.4h.3l.5.4h.2v.4h.5v.5h-.1l.1.2v.1h.1l.8 1.3.1-.2v.1h1.4l.2-.4h.6l.2.4h3.1v.4h1.3l.2.4h.3l.5.4.5-.4h.3l.5-.8h.5l.2-.4h1l.2-.4h.2l1-.8h.7l.2-.4h.3v-.4l.4-.3h.4l.2.4h.2l.5.8h.3l.5.4h.4v.4h.2v.4h.2v.7l.4-.7h.5v.4h.4v-.1.1h.3l.2.4h.4v.4h1.2l.2-.4h.3l.2.3v.4l.4.6.2-.4.2.3h.2v.4h.2v.4h2.4l.2-.4h.7l.2-.4h1l.2-.4h1v-.4h.8l.2.4h.2v1.4l.2.4v.4l1 1.6h1.9l.2.4h1.4l.2.4h.4v-.5l.9-1.5.5-.4.2-.7h.3v-.8h.2v-.5l.5-.8v-.4l.6-.9h-.4l-.2-.4h-.2v-.5h.2v-.4h.5v-.7h2.3l.2-.4h.2l.3-.5v-.3h.2l.2-.4h.3v-.4h.2l.3-.5v-.3h.5v-.5l.2-.4v-.7h.2v-.4h.1l.6.7v.8l.5-.8v-.5l-1.2-1.9v-.6h.2v-.4h.4l.8-.3v.3h.2v.3l.5.8.2.8.3.5h.6l.2-.4h.2l.5-.4h.6l.4.7.5.4v.4h.3l.2.4h.4v.4h.4l.2-.4h.3v-.4h.2v-.6h.2v-.4h.2l.5-.9v-.3h.2v-.4l.2-.3h.1v-.1l.1-.2h-.1v-.1h.2v-.6h-.5l-.2-.4h-.5l-.2-.4h-.2v-.4h-.3l-.5-.8h-.4v-.4h-1v-.3h-.5v-.4h-.2v-.3l-.7-1.2v-.4l-.3-.4-.5-.4-.7-1.1-.5-.4-.2-.3v-.9h-.3l-.2-.4H646l-.2-.4h-.5l-.5-.8h-.2l-.2-.3v-.3l-.5-.8v-.5h-.2v-.3l-.1-.2h1.4l-.4-.6h-.5l-.8.4h-.2l-.5-.4h-.2v-.3l-.2-.4v-.3l-.2-.8-.2-.4v-.2h.2v-.4h.2v-.5l.2-.4v-.9l-.5-.4-.7-.3v-.4h-.3l-.2-.3v-.8l-.7-1.2v-.5h-.5v-.8h-.2v-.3h-1l-.2-.4h-.2l-.2-.4h-.4v-.4h-.2v-.8h-.2v-.8h-1.5l-.2-.4h-1l-.2-.4-2.2-.8h-.7l-.7-.4h-.5l-.7-.4-.5-.4-1-.4h-.9l-.2-.4h-.2l-.2-.4h-.3l-.4-.3-1.2-1.9-.2-.8-.5-.4-.2-.3v-.5h-.3l-.2-.7-1-1.6v.7h-.5v.4h-.7l-.2.4h-.2l-.5.4-.7.4h-.3v.4h-2.2v-.4l-.4.7h-.3v-.4h-1l-.2-.4h-.9v-.4h-.5l-.2-.3v-.1h-.1l-.2-.3v.3h-.5l-.2-.4h-.9v-.4h-.3l-.2-.4h-.9v-.4h-.8l-.2-.4h-.7v-.8h-.2v-.4h-.5l-.2-.4h-.2v-.4h-.7v-.4h-.2v-.5h.5v-1.2h-.2v-.4h-.5v-.4h-.5v-.4h-1v-.4h-.8l-.4-.7v-.1h-.7v-.3l-.3-.5h-.2v-.4h-.2v-.4h-.7v-1h-2.8l-.2.4h-.2l-.2.4h-2.2l-.2.4h-.3l-.3-.4-.4.3v-.2h-1.2v.4l-.2-.4h-.4v-.4h-.3l-.2-.3v-.9h-.2v-.8h-.3l-.2-.3v-.4l-.3-.5h-.2v-.3l-.3-.4-.5-.4-.3-.4h-.2v-.3l-.1-.2h.1v-.4h.2v-.5l.5-.8v-.4l.2-.3h.2l.3-.5v-.3h.2v-.8h.2v-.8h.2l.3-.5v-.4l.4-.3.3-.4v-.4l.2-.4v-.1h.2v-.5l.5-.8v-.4l.2-.4v-.8l.2-.4v-.5h-.2v-.2l-.2-.3.2-.3.5-.4.2-.7h.2l.3-.4.2-.8.7-.7.3-.8v-.3h.2v-.4h.2v-.5l.2-.3h.1l.2.4h.9v-1h-.2v-.3l-.2-.4v-.2h.2v-.6h-.2v-.3l-.2-.4v-.8l-11.6-.5v-.6h.2l.5-.4h.3v-.4h.4l.2-.4h.9l.4-.3.4.6v.9h.4l.5-.4h.8v-1h-.5l-.4-.7v-.2h.2v-.4h.4l.5-.9v-.5l-.3-.5h-.2l-.2-.3v-.4l-.2-.4v-.4l-.2-.2v-1.9h.2v-.5l.1-.2.4.7h.7v.4h1.5v-.8h.5v-.4l.2.4h.2l.4.7v-1.1h.2l.5-.9v-.4l.2-.7v-.3h.9l.5-.4h.3v-.8h.2v-.5l.5-.8v-.8l.3-.5h-.3v-.1h.2v-.5l-.1-.2h.1v-.4h.2l.2-.4h.5l-.7-.7.2-.2h.3v-.4h.4l.2-.4h1v-.4h.4l.8-.6h-.5v-.4h-.2v-.4h-.2v-.4h-.2v-.4h-.2v-.3l-.2-.4v-.5h-.5v-.4h-.3l-.2-.4h-.2v-.3l-.8-1.2h-.2v-.4h-.3l-.2-.3v-.5h-.2v-.6l.3-.5h-.3v-.5h.2l.4-.6h-.3v-.3l-.2-.3.2-.3v-.9h-.3l-.2-.4h-.2v-.4h-.2v-.4h-.5v-.5h-.6l.1-.2v-.4l.5-.8-.5-1.2V158l-.2-.4v-.3l-.2-.6h.1l.2-.4h.2l.3-.4.3-.8v-.3h.2l.5-.9v-.4l.3-.5h-.2l.1-.2v-.3h.2l.5-.8.5-.4.2-.4h.2l.5-.8h.2l.2-.4h1.6l.8-.4v-.5l-.2-.8v-.4l-.3-.5h-.2l-.2-.4h-.3l-.5-.4h-.2v-.6l-.4.6-.1-.2v-.4l-.4-.6h.2l-.3-.8.8-.3h.6v-.8h.2v-.5l.2-.4v-.3h.4l2-1.2v-.5l-.4-.4.3-.4-.8-.4h-.1l.2-.4h-.3l.2-.6v-.5h-.5v-.2h.1v-.2l.3-.5h.2v-.3h-.2l-.2-.4h-.5l-.1-.1h.1l.3-.5v-.3h.2v-1.8h-.2v-.2l.2-.4v-.9h-.3l-.6-.3v-.4h-.3l-1.2-.7-3.9-3.1h-.2l-1.9-1.5-1.7-1.2h-.4v-.1h.2v-.4h.2v-.5l.2-.3h.3v-.4h.4l.2-.4h.5v-.4h.2v-.5l.2-.7h.1l.3.5.6-1v-.3l.4-.7h.5l.7-1.2h.3v-.4h.2l.3-.5v-.7h.2v-.5l.4-.7h.3v-.3l.4-.7h.2l.2-.4h.3v-.4h.2l.2-.4h1l.2-.4h.7l.2-.4h.2l.3-.5v-.3h.2v-.5l.2-.4v-.4l.2-.3h.2l.3-.5V108l.5-.8v-.7h.2v-.8h.2v-.4h.2l.2-.4h.2l.2-.4h.3v-.4h.2l.5-.8h.3v-.4h.2l.2-.4h.8v-.4h.2l.5-.8h.6l.2.4h.9l.2-.4h.3v-.4h.5v-.4h.4l.3-.8.3-.4V99h.2v-.4h.5v-.4h.5v-.4h.9l.2-.4h.2l.2-.4h.2l.2-.4v.7l.4-.7h.5v-.4h.2v-.5l-.2-.4v-.4l-.2-.4v-.2h.2l.2-.4h.8v-2.3h.2v-.4h.2l.2-.4h.2l.3-.2v.1h.2v-.3h1.1l.2-.4h.5l-.9-1-1-1.2-.2-.2.3-.4v-.1h.4l.2-.4h.3v-.8h.2l.2-.4h.3v-.4h.5v-.4h.4l.2-.4h.5l.3-.5-.8-1.3h-.4v-.4h-.5v-.3l-.7-1.2v-.5l.2-.4v-2.4l-.2-.4v-.4l-.2-.4v-.5h-.2v-1.9h-.3l-.2-.4h-.2v-.2h-.2v-.4h-.2v-.8h-.5l-.2-.8h-.2v-.4h-.2v-.3l-.5-.9h-.2v-.3l-.3-.5H612l-.2.4h-.5l-.5.4h-.4l-.2-.4h-.5l-1-.8h-.9l-.2-.4h-.4v-.4h-.2v-.4h-.3l-.2-.4h-.2v-.4H605l-.2-.4h-.7v-.8h-.2v-.9h.2v-.8h.2v-.3h-.5l-.4-.7-.2-.8-.2-.4V61h.2v-.4h.2l.3-.5v-.5h-.3l-.9-1.4v-.5h-.2v-.4h-.2v-.4h-.2v-.1h1.9v-.4h.6l.5-.4h.2l.5-.4h.3v-.8h.2v-1.6l.2-.4v-1.3h-.2v-1.1l-.2-.4v-.4l-.5-.8v-.4l-.5-.4-.3-.4h-.2v-.3l-.2-.4v-.7l.2-.3.5-.4v-.4l.2-.3h.5v-.4h.2v-.3h1v-.5l.2-.4v-2.1h-.2v-.8h-.2v-1l.2-.4.6-1.3h-1.3l-.5-.4h-1.1v-.4h-1l-.2-.4h-.9V35l.2-.4v-.5h-.8l-.4-.3v-.4h-.2V33h-.6l-.9-.4h-.9l-.2-.4h-2.5l-.2.4h-.3v-.4h-.5l-.2-.4h-.2v-.4h-.3l-.2-.4h-1l-.2-.4h-.9v-.4h-.5v-.4h-.3l-.2-.3v-.9h-.8l-.9-.4H587l-.3-.5-.3.5h-.1l-.4-.7v.7h-.8l-.7-.4h-.4l-.2.4h-1.6l-.8.4h-1.2l-.5.4h-.3v.4h-.9l-.2.4h-1l-.2.4h-.5l-.5.8h-.6l.3.5v.2h-.2l-.5.4-.2.4h-.2l-.2.4h-1v.4h-.2l-.5.4-.2.4h-.3v.4h-.4l-.8 1.2v.3h-.2v.4h-.2v.4h-.4l-.2.4h-.2l-.2.4h-.7l-.2.4h-.9l-1 .8h-.3v.4h-.2l-.3.8-.2.4-.5.4-.3.4-.2.7h-.3v.5l-.4.7h-1.5v.5l-.2.4v.3h-.1v.2h.1v.1h-1.9l-.2.4h-.5v.4h-.2v.8h-.4l-.2.4h-.2l-.5.8h-.1l-.2-.4H555v.4h-.2l-.2.4h-.3v.4h-.2l-.3.5v.3h-.2v.5l-.2.3V49h-.2v-1.5h-.3l-.2-.3v-.5h-.2v-1.5h-.2v-.4h-.4l-.5.4h-.7l-.2.4h-.5l-.5.4h-.5l-.2.4h-1.9l-.3.9v.3h-.2v.8h-1.8l.3.5v.9h.5l.2.4h.2v.1h-.2l-.3.5v.3h-.2l-.5.9v.4l-.2.4v.4l-.4.7h-.3v.4h-.2v.5l-.2.4v.3h-.2v.8h-.2l-.2.4h-.3v.4h-.2v.4h-.5v.4h-.5l-.2-.4h-.2v-1.2h-.4l-.5.4h-.4l-.4-.7v-.5h-.2v-.3l-.2-.4v-.5h-.2v-.4h-.3l-.2-.4h-.2v-.4h-.5v.8h-1.4v.4h-.7v1.8h.2v1.7h-.2v.4h-.2l-.6 1h.2l-.1.2v.7h-.5v.4h-.2l-.3.5v.4l-.2.3h-.3v1.2h-.2v.5l-.2.4v-.1l-.8-.4h-2.2l-2.2-.4h-2v.9l.2.8v.7l.5 1.7h.2v.8h.2v.7l.2.4v1.4l-1.4 1.1h-.1V71h-.3l-.2-.4h-.5l-.6-.5v.5h-.2v.4h-.2l-.2.4h-.3v.4h-1.6l-.5.4h-1l-.2.4h-.3v-.4h-.4l-.2.4h-.8l-.2-.4h-.2l-.2-.3V71h-1.2l-.2.4h-1.9l-.5.4h-2.7v.1-.8h-.4l-.3.4-.7.4h-.6v.4h-.4l-.2.4h-.2l-.5.8-.9.4h-.1v-.4h-.5v.4h-.2v1h.2v.4h.2v.1h-.5v.6h.2v.1h-.1v.2h.1v.1h-.2v1.5h-.5v.4h-.2v.6h.2v.1h-.5v.8h-.2v.4h-.7v.4h-.5v.4h-.2v.5l.5.9h1.6v.4h.7v-.1.1h1.7l.2.4h.9v-.4h.2v.4h.3l.4.7v.5h.5v.8h.2v.5h-.5v.6h.5v.1h-.2v.4h-.1v.2h.1v.2l-.3.5h.4l.2.4h.7v.4h.2v.4h.5v.2l-.2.3h-.3v.4h-.5v.4h-.5v.4h-.2v.5h.2v.1h.3l.2.4h1.4v.4h.8l.2.4h.9v.4h.7v.4h.2v.1h-.1v.2h.1v.4h.2v.3l.1.2h-.1v.4h-.1l.1.2v.1h.1l.2.4h.2v.4h.2v.3h.2v-.3l.2.4h2.4l.2.4h.2v1.1l.2.4v.2h-.1v.2l-.2.4h.6v1.2h.5v.4h.1l-.2.4h.6v.4h.5l.1.1v.2h.6v.4h.2v.4h.7v.4h.2v.8h.2v.4h.2v.4h.2v1.3h-.2v1.8h.3l.2.3v.4l.2.4v.5h.3l.2.4h.4v.1h-.2l-.3.5.3.4v.2h-.2v.4h-.2v.4h-.2v.4h-.2v.4h-.2v.8h-.2l-.2.4h-.2l-.2.4h-.3v.4h-.2l-.2.4h-.5l-.2.4h-2v-.4h-.8l-.2-.4h-.7v-.4h-.5v.4h-1.2v.4h-.9v-.7l-.4.7h-.8v.5l-.2.3h-.3v.4h-.2l-.2.4h-.3v.4h-.2v.6h.2v.4h.2v.4h.5v.4h.2v1.4l-.2.3h-.2v.2h.1v.8h.3l.2.4h.2l.2.4h1.2l.2.4h.5l.2.3v.4l.2.4v.2h-.2v.4h-.2v.4h-.2l-.5.8h-.2v.2h.1v.1h-.2v.4h-.5v.4h-.2l-.5.8h-1.2v-.4h-.2v-.4h-1v-.4h-.6l-.5.4h-.3v.4h-.2v.4h-.2v.4h-.2l-.3.5v.4l-.2.4v.3h-.2v.6h.2v.5h-.2v.4h-.2v.3l-.2.4v.9h.5v.1h-.5v.4h-.1v.2h.1v.1h-.4l-.2.4h-.2l-.3.5v.3h-.2v.8h-.2v1h.1l-.1.1h-.3v.4h-.4l-.2.4h-.3v.4h-1.3l-.4-.3-.3-.4h-.5l-.2-.4h-.2l-.2-.3v-.5h-1.2v.8h-.2l-.2.4h-.2l-.2.4h-.2l-.5.4h-.6v.4h-.2v.4h-.2v-.5h-.5v.5l-.2.3h-.3v.4h-.2v.8h-.2v.4h-.9l-.2.4h-.3v.4l-.2.4-.2.7h-.6l-.4-.3v-.4l-.5-.4-.5-.8h-.2v-.4h-.2v-1.2h-.2v-.3l-.2-.4v-.4l-.2-.4v-.4h-.3l-.5-.8h-.2l-.2-.3-.5-.4-.2-.4-.5-.4-.3-.4h-.2l-.7-1.2h-.4v-.4h-.3l-.4-.7v-.5h-.2v-.4h-.2v-.4h-.2v-.3l-.2-.4v-1.2h-.2v-.4h-.5l-.2-.3v-1h.2v-.6h-.2v-1.8l-.1-.2h.1v-.9l-.2-.4v-.5h-.2v-.4h-.2v-1.5h-.2v-.4h-.3l-.2-.3v-.5h-.2v-.3h-.3l-.2-.8h-.4v-.4h-.2v-1.1l-.2-.4v-.2h.2l.5-.4h.8v-.4h.1v-.2h-1.7l-.5.4h-.1v-.3l-.7-.8v-.3l.5-.4-.3-.5-.5-.4v-.2h.2l.2-.4h.7v-.2h-.2l-.2-.3-.5-.4h-.2l-.9-1.1v-1.8l.4-.7.4-.3h.5l.3-.5-.3-.5h-.5l-.7-.4h-.5l-.4-.7v-.5h-.2v-.4h-.3l-.2-.4h-1l-.2-.3v-.4l-.3-.5h-.3l-1 .4-1.2.8-.9.4h-.3l-.2.4h-.3v.5l-.5.8v.3h-.2l-.2.4h-.2l-.8 1.2v.4l-.2.4v.4l-.4.6-.2-.3h-.2l-.5-.9-.2.4-.2-.4-.1.2v-.1h-1.4l-.2.4h-.2l-.5.4h-1.8v.4h-.2v.1l-.4.7v-.7l-.4.7v-.4h-1v-.4h-1.7v-.4h-.5v-.5h-.2v-.4h-.5v-.4h-.9l-.2.4h-2.2v-.4h-1.7v.4h-.2v.4l-.1-.1h-1.8l-.2.4h-.1l-.2-.3v-.5h-1.7l-.2-.4h-.9v-.1l-.5-.9h-1.4l-.2-.4h-.6l-.5.4h-1.4l-.5.4h-2.9l-.2.4h-.8v.6h1.2v.4h1l.2.4h.7l.5.4h.6v.4h.5l.4.7v.4l.2.4v.4l.3.5h.2v.4h.2v.4h.2v.9h-.2l-.2.4h-.5v.4h-1.5l-.2-.4h-.2v-.6h-.5v-.4h-.8l-.2-.3v-.5h-1.4v.4h-.4l-.5.4h-.3l-.2.4h-.5l-.2.4h-.2l-.2.4h-.2l-.2.4h-.2l-.3.5v.3h-.4l-.2.4h-.2l-.6.4v.3h-.2v-.4h-.5l-.2-.4h-.7l-2.8-.3h-.5l-.2-.4h-.4v-.4h-1.2v.4h-.5v.4h-1.4v.4h-.2v.4h-.5v.4h-.5v.8h-.2v.1-.1h-1.2l-.5-.4h-.4v.8h-.7v.4h-.2v.4h-.8l.3.5v.3l-.2.4v.4l-.5.8v.3h-1v.4h-.2v-.7l-.4.6-.2-.3h-.9v.4h-.5v.4H417v.4h-.5v.4h-.2v.4h-.2v.8h-1.2v.4h-.9v-.4h-.5v-.7h-1.2v.4h-1.2v.4h-1.9v.4h-1v.4h-.4l-.3.4-.5.4-.2.4h-.3v.8h-.2v1.4h-.5v.4h-.5v.5l-.2.3h-.3v.6h.2v.1h-.5v1.2l-.5.8v.3h-.2v.4h-.2v.4h-.2l-.2.4h-.3v.8h-.7v.5l.2.4v1h-.2v1.2l-.2.4v.3h-.2v.5l-.5.8v.4l-.2.3h-.4l.2.4h-.1v1h.2v1.2h.7v.3h.2v.1h1l.2.4h.2l.2.4h1.4v.2h.2v.4h.5v-.4h1.7v.4h.2v.3h.2v-.3h.2v.5h-.7v.8h-.2v.5l-.2.4v.3h-.2v.1l-.1-.2-.4.6v.3h-.2v.9l-.2.4v.3h-.2v.8h-.2v.4h-.5v.5l-.2.3h-.3v.4h-.7l-.2.4h-.5v.9h-.2v.8h-.2l-.3.5v.4l-.2.4v.3h-.2v1.5h-.8l-.5-.4H399l-.5.4h-.7l-.3.4-.4.3h-.2l-.8.4-.2.4h-.2l-.7 1.2h-.8l-.2-.4h-.9l-.3.5v.3h-.8l-.2-.4h-1.2l-1-.6-.3.5v.4l-.4.3-.7 1.1h-.2l-1.4 2.3h-.2l-.3.5-.5 1.1-.5.8v.3h-1.4l-.2.4h-1.2l-.2.4v-.4h-.5v.1-.1h-.4l-.2.4h-2.4l-.2.4h-.2l-.5.8h-.2l-.3.5v.3h-.2v.4h-.2l-.2.4h-.6l-.9-.3v-.4h-3.2l-.2-.4h-.7l-.2-.4h-.9v-.4h-3.7l-.2-.4h-.8l-.7-.4h-1.4v-.4h-.3l-.2-.4h-.5l-.4-.3-.3-.4h-1l-.2-.4h-.5l-.2-.4h-.2l-.5-.8h-.2v-.7l-.4.7h-.4l-.8.4h-.8l-.2.3-.2-.3h-.2v-.4h-.5v.4h-.5v.4h-.2v.4h-.5v.4h-.5v.3h-1v.1h-.2v.3h-.4l-.2.4h-.2l-.2.4h-.5l-.2.4v-.4h-.8l-.2-.4h-.7l-.2-.4h-.7l-.5-.4h-2.1v.4h-2.9v.9l-.2.4v.3l-.2.3h-.3v-.1h.2v-1h-.2v-.3l-.3-.5h-.2v-.8h-.3l-.2-.3v-.9h-.2v-.3l-.2-.4v-.5h-.2v-.9h.2v-.3l.4-.7h.8v-.4h.5v-.6h-.1l.5-.8h-.3v-.4h-.2v-.4h-.5v-.6l.2-.3h.5v-.9l-.4-.6h.1v-1.2h.5v.3l.4-.7h.3v-1.9h.2v-.4h.5v-.4h.5v-.4h.1v-.2h-.1v-1.2h-.2v-.4h-.2v-.4h-.3l-.2-.4h-1.2l-.2-.4h-.4v-.9h2.4v-1.2h.1v-.2h-.1v-.2l.3-.4-.8-1.3h-.2v-.7h-.2v-.6l-.3-.5h-.4v-.1h.1v-.3h-.1v-.8h-.7v-.1h.5v-.6h-.2v-.4h-.2v-.1h.4v-.3h-.1v-1.5h-1v-.2h.5v-.6h-.8l-.2-.4h-1.9v-.4h-.4v.1-.1h-.5v-.1h.2v-.8h.8l-.3-.5v-.2h.5v-.6h-.2v-1.1l-.3-.5h-.2v-.7l-.2-.4v-.9h-.2v-.1h.2v-.6h-.2v-.1h.3l-.4-.6h-.2v-.8h-.3l-.2-.3v-.5h-.2v-.4h-.2v-.4h-.2v-.4h-.7v-.7l-.2-.3.3-.5h-.7l-.4-.3v-.4H333v-.4h-.7v-.4h-.2v-.4h-.2v-.4h-.2v-.3l-.5-.4-.3-.4h-.4v-.6l.2-.3h.3v-.5l.2-.3h.3v-.8h.2v-.4h.2l.3-.4.2-.7h.3v-1h-.2v-.3l-.5-.8v-.3l.2-.4v-.7h.2v-.4h.2v-.8h1.6l.2-.4h.3v-.4h.2v-.4h.2v-1h.2v-.8h.3l-.4-.6h-1.4l-.2-.4h-.8l.1-.2v-.4l.2-.3h1v-1h-.2v-.1h.7v-.8h.2v-.4h1.2v-.5l.2-.3h.3v-1h-.7v-.4h-.1l.1-.2v-.9h-.7l-.2.4h-6.8l-.2-.4h-.2v-.4h-.2v-.4h-.2v-.9h.2v-.4h.1v-.2h-.1v-.4h-.5v-.4h-.1l.1-.1h.3v-.6h-.2v-.6l.2-.3h.8v-.4h.7v-.8h.4l.2-.4h.7l.2-.4h.7l.2-.4h.2l.2-.4h2v.4h2.4v-.4h.5v-.4h.7v-.4h1.7v.4h.5v-.4l.2.4h1.2v-.4h1.2v-.4h1.2v-.4h.5v-.4h.2l.2-.4h.2l.2-.4h.2l.2-.4h.2l.1-.1h.2v.4l.4-.7h.5l.2-.4h1.5l.2.4h1.4l.2.4h.4v.4h2l.2.4h3.8v-1.3l-.2-.4v-.9h-.3l-1.1-.2h-.2v-.8h-.5v-.4h-.2v-.4h-.5l-.2-.3.6-.9h-.4l-.5-.8h-.2l-.2-.4h-.2l-.2-.4h-.2v-.4h-.3l-.4-.7v-.5h-.3l-.2-.4h-.2l-.2-.4h-.5l-.2-.4h-.5l-.2-.4h-.2l-.5-.8h-.5l-.5-.8h-.4v-.4h-.8l-.2-.4h-.5l-.5-.8h-.2l-.2-.4h-.2v-.4h-.1l.2-.4h-.6.1l-.1-.2v-.1h-.1l-.4-.7v-.5h-.2v-.4h-.2v-.4h-.2v-.4h-.2v-.3h-.5v-.3l-.5-.4-.5-.8h-.2v-.4h-.3l-.2-.3-.3-.8h-.3l-.2-.3-.5-.4h-.2v-.3l-.2-.4v-.6h-.3l-.2-.3v-.4l-.5-.4-.1-.2h.1v-.6h-.6l-.4-.3.2-.4-.3-.5h-.7v-.4h-.2v-.8h-.3l-.2-.3v-.9h-.8l-.4-.3v-.2l-.6-.4h-.2l-.2-.4h-.2V64l-.3-.5h-.2l-.2-.4h-.2l-.4-.7v-.2h.2l.2-.4h.2l.4-.6h-.4l-.2-.4h-.4v-.4h-.2V60h-.3l-.2-.4h-.3l.1-.2v-.9h-.5v-.8h-.8l-.5-.8h-.4v-.4h-.2v-.4h-.3l-.2-.3v-.2h.1v-.2h-.1V55h-.2v-.1h.1v-.2h-.1v-.4h-.2v-.4h-.1l.2-.4h-.4l-.2-.4h-.2v-.8h-.2v-.4h-.5v-.4h-.3l-.3-.2v-.2h-.1V51h.2v-.6h-.3l-.2-.4h-.2v-.4h-.3l-.8-1.3v-.2h-.2l-.2-.4h-.2v-.8h-.2v-.4h-.4l.2-.4h-.5l-.2.4h-.3v.5l-.2.4v.7h-.2v4.2h-1.2v.4h-.4l-.2.4h-.3v.4h-.2l-.5.9v.3h-.2v.4h-.2l-.3.5v.3h-.2v1h.2v.4h.2v.3l.2.4v.6h-.2l-.3.5v.8l.2.4v.4l.3.5h.2v.1h-.3l.3.5v.2h-1v.4h-.2l-.2.4h-.2l-.2.4h-.2l-.2.4h-.7l-.2.4h-.3v.4h-.3l.3.5v.5h.2v.8h.2v.4h.1l-.1.1h-.1v.1l-.1.2h.1v.5h-.2v.5l.1.2h-1v.1-.2h-.7v-.4h-.5v-.4h-.5v.4h-.2l-.2.4v-.4h-.4l-.2.4h-.3v-.7l-.4.7h-1.7l-.2-.4v-.5h-.2v-.7l-.4.7h-.7v.2l-.1.1h-.5l-.2.4h-.2l-.2.4h-.3v.8h-.4l-.2.4h-.2l-.5.8h-.2l-.2.4h-.5v.4h-.2l-.5.4h-.3l-.3.4-.4.3h-.3l-.3.4-.4.3h-.3v-.4h-.5v-.3h-.2v-.4l-.5.8v.3h-.2v.8h-.5v.8h-.2v.4h-.2v.4h-.2v.5l-.3.4.3.4v.2h-.7l-.2.4h-.3v1.2h-.5v.6h.2v.8h.2v.4h2.2v-.4l.4.7v-.7h1.4v.4h.7l.2-.4h.8v-.4h2.4v.4h.5v.4h.1l-.1.1h-.2v.2h.1v.8h.2v.1h-.2v.6h.2v.4h.2v.1h-.1v.2h.4v.4h.5v.4h1.2v1h.2l.1.1h.2v.4h.5v.1h-.1v.2h.1v.1h-.1v.2h.6v.8h.1l-.2.4h.3v.4h.7v.1h-.1v.2h.1v.8h.2v1.2h.2v.1h-.4l-.5.4h-1.5l-.2.4h-.5v.4h-1.4l-.2.4h-.8l-.5-.4h-.6l-1 1.5h-.2l-.3.5.2.4-.2.3h-.9l-.8.4h-.6v.4h-.7V94l-.3-.5h-.2v-.8h-.2v-.4h-.2v-.4h-.3l-.2-.4h-.5l-.2-.4h-.5l-.2-.4h-.2v-.4h-.5v-.4h-.5v-.4h-.5l-.2-.3v-.5h-.5l-.2-.4h-.2v-.4h-.2v-.4h-.2v-.7l-.2.4-.2-.4v-.7h-.2v-1.2h-.2v-.3l-.3-.5h-.4v-.4h-.5l-.2-.4h-.5l-.2-.4h-.2l-.2-.4h-.4v-.4h-.5v-.4h-.2v-.4h-.2v-.2h-.2v-.4h-.7v-.4h-.5v-.4h-.5l-.2-.4h-.5l-.2-.4H282v.4h-1.2v.4h-2.2v.4h-1v.4h-.7l-.2.4h-1v-.4h-.8l-.2-.4h-.6l-.2.4h-.3v.4h-.2v.4h-.2l-.2.4h-.3v.4h-.5v.6h.3l.2.3v.5h.3l.4.7v.5h.2v.3l.3.5h.2v1.2h.2V91l.5.8v1h-2.4V92h-.7v.4h-1.4v.4h-3.2l-.4-.7v.7h-.7v-.4h-.5l-.4-.7v-.4l-.6-.4h-.2v-.4h-.5l-.2-.4h-.9l-.3.9v.7h-.2v.9l-.2.4v.8l-.2.4v.8l-.2.4v.3h-.1l-.5-.4h-.7l-.5-.4h-.8l-.6.4v.3h-.2v.6h.2v.4h.3l.2.4h.7v1l-.2.4v.7h-.9l-.3.5v.4l-.2.3h-.5v.8h-.2v.8l-.4.3h-.3v.4h-.7v.6h.2v1.2h.2v.8h.2v.4h.5v.4h.2v.5h-.2l-.3.5v.3h-.2v.4h-.5v.4l-.3-.5-.3.5h-1.3v.4h-.4l-.2.4h-.3v.4h-.2v.4h-.2v.6h.2v.3l.3.5h.2v.1h-.4l-.2.4h-.3v.6h.2v1.4l.3.5h.2v.3l.3.5h.2v.4h.2v.3l.2.4v.5h.2v.1h-.1l.1.2v.1h.1l.2.3v1.5l-.2.4v.4l-.2.4v1.2l-.2.4v.4l-.2.4v.7h-.2l-.3.8-.5.8v.8l-.5 1.5v1.4h-.2v.9l-.5.7-.5 1.6v.3h-.2v.9l-.2.4v2.3l-.2.4v.4l-.2.4v-.5l-.2.4v1.2l-.2.4v.3h-.2v2.7h-.2v1.2h-.2v.5l-.7 1.2v.1h-.2v.5l-.2.4-.3.8v.4l-.2.4v.4l-.5.8v.3h-.2v.5l-.2.4v.1h-.2v.5l-.2.8v.3h-.2l-.3.5v.4l-.2.4v.1h-.2v3.2l-.2.4-.3 1.2v1.4h-.2v.8h-.2v.5l-.2.4v.3h-.2v.4h-.2v.4h-.7l-.2.4h-.3v-.4l-.3-.5h-.5l-.2-.4h-.5l-.2-.4h-.7v-.4h-.2v-.3h-1v-.4h-.7v-.4h-1.4v.4h-.2v-.7l-.4.7h-.3v.4h-.5v.4h-.5v.4h-1v.4h-.2l-.1.1h-.2v.3h-.7v.4h-.5v.4h-1.4v.5l.2.8v.3l.2.4v.5h.3l.4.7v.4h.3l.2.3-.3.5h.4l.2.3v.5h.2v.3l.7 1.2v.5h.2v.1h-.4l-.2.4h-.8v.4h-.7l-.2.4h-.5l-.5.4h-.2l-.5.4h-.7l-.2.4H228v.4h-1.4l-.2.4h-.4l-.8.4h-.5l-.2.4h-.8v.4h-.6l-.5.4h-.2l-.5.4h-.4l-1.2-.4h-.7l-.2-.4h-.7l-.5-.4h-.7l-.2-.4h-.7l-.2-.4h-1.2l-.2-.4h-.5l-.2-.4h-.4v.6h.3l.2.4h.2v.4h.3l.2.4h.2v.1h.2v.8h.2v.4h.3l.2.4h.2l.2.4h.2v.4h.4l-.6.9-.5.4-.5.8v1.1h-.2v.4h-.2v.4h-.2l-.2.4h-.5v.4h-.2v.1-.4l-.7 1.1h-.2l-.5.4-.3.4-.5.4-.2.4h-.2l-.2.4h-.2l-.5.8h-.2l-.5.8h-.2l-.4.7-.2-.3h-.3l-.4-.3-.3-.5-.2.4-.2-.3h-.2l-.1-.1h.5l-.4-.6-.3-1-.2.2v-.1h-.3l-.5-.8h-.2l-.4-.6.3-.5h-.3v-.4h-.2v-.4h-.3l-.3-.5h.2l-1.4-2.2h-.2v-.4h-.3l-.2-.4h-.2v-.4h-.2v-.4h-1v-.4h-.5v-.3h-.1v-.1h-.1v-.4h-.5v-.1h.1v-.2h-.6v-.4h-.2v-.1h.5l-.7-.6-.3-.4h-.2v-.7h-.6l-.4-.3-.3-.8h-.4v-.4h-.5v-.4h-.3l-.2-.4h-.7v-.4h-.6l.2-.4h-.6l-.2-.4h-.2l-.2-.4h-.5l-.2-.3-.5-.4h-.5l-.2-.3-.5-.4h-.2v-.4h-.2v-.4h-.8l-.2-.4h-.3l-.5-.4h-.2l-.5-.4h-.2l-.2-.4h-.2l-.4-.7v.9h.2v.8h.2v.8h.1l-.2.4h.2l-.1.2v.4l-.2.4v1.4h-.2v.4h-.2l-.5.9v.4l-.2.4v.7h-.2v.5l.2.4v.9h.2v.4h.2v.3l.2.4v.5h.2v.6l.2.8.2.4v.9h.2v.7l.2.4v.5h.2v.4h.2v.4h1.7v.4h1l.2.3.5.4h.6v.1h-.2v.5l-.2.3h-.8v1.8h1.7v-.4h.4l.2-.4h.3l.2.4h.2l.2.3.5.4h1.8v.4h2.1l.2-.4h.1l.2.4h.2l.2.4h.4v.3l.5.4.3.4h.2v.4h.3l1 1.5h.2v.4h.2v.4h.2v.4h.2v.8h.2v.4h.2v.3l1 1.5v.5h.2v.3l.3.5h.2v.3l.5.8.2.8.2.4v.5h.2v.3l.1.2h-.3l-.2.3-.4-.3h-.6l-.5.4-.2.4-.7.4-1 .8-.2.4h-.2l-.5.8h-.3v-.1h-.2l-.2.4h-.2l-.5.8-.5.4-.2.4h-.2l-.2.4h-.3v.4h-.2v.4h-.2l-.2.4h-.3v.4l-.7.4v.3h-.5v.3h-.2l-.5.4h-.3l-.2.4h-.2l-.3.4-.7.6h1v.4h.5v-.1l.2.4v-.3h.4l-.2.3.2.3h-.1v.5l-.2.3h-.6l.1.2v.2h-.5v.4h-.2v.4h-.1v.2h.4v.4h.5v.1h-.1v.2h.1v.1h-.2l-.1.1h-.2v.3h-.2v.6h.2v.6h.1v.1h.1v.5h1v-.4h.2v.4h.5v-.1.1h.2v.4h1.4v-.4h.2v.8h.2v.1h-.5v.6h.2v.1h-.1v.2h.1v.4h.2v.1h-.3l.2.4h-.1v.8h-.1v.2h.1v.4h.3l.2.4h.1l-.1.1h-.3v.4h-.6l.3.5v1h-.2v.5l.3.5h.2v.5h.3l.1.1h-.5l.4.7-.3.5h-.5l-.2.4h-.7l-1 .8v.3h-.4l-.2.4v-.4h-.7v.5h-.2v.3h-.2v-.4h-1.5l-.2-.4h-.7l-.5-.8h-1.1v.1-.1h-1v.1l-.1-.2-.4.6v.3h-.2v.4h-.4v.2h.1v.1h-.8l.2.8h-.1l-.5.9v.5h.2v.9h-.2v.6h.1l-.2.4h.3v.5h-.2l-.2.8h-.3v.4h-.2l-.5.4-.3.4v.7h-.2v1h.2v.1h-.9l-.3 1.3v.8l.2-.2v.8h.7v.6l-.2.3h-.5v.4h-.6l-.5.4-.2.4h-.2l-.2.4h-.3v.5l-.2.3h-.2l-.7 1.2-.5.4-.2.4h-.2l-.2.4h-.5l-.2.4h-.7l-.2.4h-.2l-1.1 1.7.6.4.2.3v.3l-.4.3-.3.5.6.5h.2l.5.8h.3l.9.7v.4h.2v.5h-.3l.3.5v1.9l.3.5h.2v.4h.2v.3l.9 1.5-.2.3h-.2l-.6.4v.8l-.3.8.2.2h-.1v1.2l-.2.4-.2.8-.2.4-.2.8-.5.4-.3.4-.2.8-.5.8v.4l-.5 1.2v1.6l.2 1.1v1.2l.5 2.4h.2v.7l.2.4v1.2l.2.4v1.6h.2v.6l.2.8.3.5h.6l.5-.4h.6v1l-.2.7v.7h-.2v.5l-.2.4v1.1h-.2v.9l-.2.4v.4l-.2.7-.3.4v.4l-.2.7-.2.3h-.3v.5l-.2.4v.4l-.2.3-.5.4-1 1.6v.4l-1.4 1.1-.3.4-.7.4-.2.4h-.2l-.2.4h-.2l-.5.4h-.2l-1 .8h-.5l-.2.4h-.2l-1.5 1.2-1.5.8-.5.4-.2.4h-.5l-.2.4h-.2l-.8.4-.5.4-.3.4-1 .8.8 1.3h.5l1.4 1.2h.2v.4h.6l.4.3.7.7.2.4.5.4 1.9 3.1.5.4v.4l.2.4v1.5l.2.4v1.5l.4 1.4h-.3l.3.5v.4l.2.4v.3l.2.8.2.4v.4l.5.8v.4l.7 1.1-.2.3h-.2l-.6.5.7 1.1h-.2l.3.5v.7l-.3.4.3.5h.2l.2.3.4.3-.1.2h-.5l.9 1 .5 1.1.5.8h.2l.2.3v.4l.2.3-.4.3-.3.4v.5l.2.4v.5h.2v.3l.2.4v.8l.1.2h-.4l.3 1.1.4-.3v1.3l.2.3-.2.3-.5 1.1-.2.3h-.2l-.5.4-.3.4-.4.3h-.3l-.7.8-.4.4h-.3l-.3.5v.5h.2v.4h.2v.4h.3l.2.3v.5h.2v.4h.2v.4h.5l.1.1v.2h.2l.2.4h.2v.4h.2v.1h-.2l-.4.6h.6v.4h.2v.1h-.2v.6h.4l-.5.8h.3v.3h.2v.1h.1l-.5.8h.4l.7 1.1 1 .4.5.4h.2l.4.3v.4l.3.5h.2l.7 1.2h.2v.4h.3l.7 1.2h.4v.4h.3l.5.8h.2l.2.4h.2l.5.8h.2v.4h.5v.4h.3l.5.8h.4v.4h.8l1-.4.3-.2v.2h.3l.2.4h.2v1.2h.2v.8h.5v1.5h.2v.4h.2v.4h.5v.4h.3l.2.4h.2v.5h-.2l-.2.4h-.4v.2h.2l.5.4.7.4h.2l.2.3v.5h.2v.2l-.2.3-.4.3h-.3v.4h-.4l-.2.4h-.3v.4h-.3l-.2-.4h-.6l-.5.4h-.7l-.2.4v-.4h-.7v.4h-.2v-.1h.1v-.2h-.1v-.7l-.4.7h-.1l-.2-.4h-.9v.4h-.4l-.5.4h-.1v-.3l-.6-.4h-.9v-.3l-.5-.8v.7h-.7v-.3l-.1-.2h.6v-.5l.3-.5h-.3v-.4h-.2v-.4h-.2v-.4h-.2v-1.2h.2v-.6h-.2v-.3l-.3-.5h-1.1v-.4h-.2v-.4h-.5v-.4h-.5v.4h-.4l-.6.4v.3h-.3l-.6-.4-.3.4h-.3v.4h-.2v.4h-.7l-.2.4h-.3v.4h-.5v.4h-.2v1.2h-.2v.4h-.2l-.2.4h-.2l-.6.4v.3h-.2v.5l.2.4v.5h.5l.2.3v.3l-.2.3h-.2l-.2.4h-.5v.4h-.2v.4h-.3l.3.5v.3l-.3.4.2.3h-.1v.8h-.2v.4h-.2v1.8h.2v.4h1.2v.4h1v1.5h.2v.4h.2v.3l.3.5h.4v.4h.2v.5h-.2v.5l.3.4.5.4v1h-.3l.3.5v.5h.1l-.2.3.3.5h.1l-.1.2v.3h-.2v.4h-.2v.4h-.2v.4h-.5v.4h-.5v.6h.5v.4h2.2v.4h.2v1.1l.4-.7v.8h.5v-.1.1h.1l-.2.4h.3v.4h.5v.4h.2v.1h-.1v.2h.1v.3h.1v.1h.2l.2.3v1.2h.3l.2.4h.4v.3l.3.5h.4v.4h.5v.1h-.5v.6h2.2v.4h2.6v.4h.5v.1h-.3l.4.6h.2v.3l.2.4v.4l.7 1.2v.3l-.5.8v.4l-.7 1.1h-.3v.4h-.2v.4h-.4l-.2.4h-.2v.1-.1h-.5v.5l-.2.3h-.2v.2l-.1.1h-.2v.2l-.2.4h.3v.5h-.5v.4h-.2l-1 1.5h-.2v.2h.1v.5h-.3l.4.6h.2v.3l.3.5h.2l.2.4h.2v.4h.8l.2.4h.2v1l-.2.3h-.5v.4h-.2l-.4.6h.2l-.1.1h-.5l-.2.4h-.3v.4h-.2l-.2.4h-.5v.4h-.5v-.3l-.5-.4v-.1h-.1l-.2-.1v-.3h-.3l-.4-.7v.7h-.9l-.6 1h.3v.4h.2v.5h-.2v.8h-.2l-.2.4h-.8v.4h-.5v.4h-.4l-.3.5v.3h-.5v.4h-.5v1.2h-.1v.2h.1v.3l.2.4v.2h-.2v.6h.5v.3h.2v.1h.2v.4h.5v.1h-.5v1.2h-.1l.1.2v.1h.1l.2.3v2h.2v.4h.2v.4h.4l-.1.1h-.1v.1l-.1.2h.1v.4h.2v.9h-.1l.1.2v.1h.1l.1.1h-.1l-.4.6h.3v.1h-.2v.6h.2v.1h-.7v.4h-.2l-.2.4h-.2l-.5.9v.3h-.2v.4h-.2v.6h.2v.3l.3.5h.2l.2.3v1.2h.2v.8h.2v.3l1 1.5v.9h.2v.4h.2v.4h.1l-.2.4h1.1v.4h.5v.4h.5v.4h.2v.4h.5v.4h.5v.7l.4-.7h.5l.2-.4h.5l.5-.4h.2l.5-.4h.2l.5-.4h.7l.2-.4h.7l.2-.4h.5l.5-.4h1.2l.5-.8h.3l.2-.8h.1l.7.4.2.3v.5h.2v.4h.5v.4h.6l.7.8h.2l.2.3v.5h.2v.3l.1.2h-.1v1.3l.2.4v.5h.2v.3l.3.4.2.7v.5h.3l1.9 3v.4l.5.9h.2v.3l.5.8v.5h.2v.3l.8 1.2h.7v-.1l.2.4v.4l.5.4.3.6h-.2l1.3 2.1.5.4h.1l-.1.2v.5h.3l.2.4h.3l-.2.3.5.8v.4l.3.5h.2l.5.8h.2l.2.4h.2l.5.8h.3l.4.3v.8h.5l.2.7v.4l.2.4v.5h.2v.3l.7 1.2.2.8.5.4v.4h.2v1.1l.5.8v.4l.2.4v.4l.5.4v.4l.2.4v1.6h.5v.7l.3.5h2.1l.2-.4h.7l.2-.4h.5v-.5l.2-.3h.2l.2-.4h1v-1.6l.2-.3h.3v-.4h1.3l-.1.2v.3h-.2v1.6l-.2.8v1.5l-.2.4v.8l-.2.4v.4l-.2.4v1.2l.2.4v1.2l.2.4v2.7l.2.8v.9h.2v.8h.3l.2.4h.5l.4.7v.7l-.2.4v.3h-.2v.5l.2.4v.3l-.2-.4v.8l.3.9h.2v.3l.8 1.2h.2l.2.3v.4l.3.5h.2l.5.7 1.2 1.2.5.4h.5l.2.4h.2v.3l.5.8.2 1.1.2.4v.8l.2.4v.9h.2v1.5h2.2v.4h.2v.1h-.3l.3.9v1.6h.2v.8h.2v.8h.2v.4h.3l.5.8h.2l.2.4h.7v.4h.6l.5.4h.2v.4h.3l.2.3v.8l.2.4v.9h.2v.4h.2v.3l.3.5h.2v.4h.5v.4h.3l.2.4h.7l.2.4h.5l.2.4h1.7l.2.4h.2v.4h2l.5.4h.2v.7l1 1.6h.2v.4h.2v.4h.2v1.2h.2v.7l.2.3-.2.3v2.8l.2.4v.6h-.2v.5l-.7 1.2v.4l-.2.7-.5.4v.3h-.2v.5l-.2.4v.4l-.7 1.2v.8l-.6.9h.6v.4h.3l.2.4h.4v.4h.2v.8h.2v.4h.2v.4h.3l.1.1h-.1l-.2.4h-.3l-.2-.4h-1l-.3-.5-.3.5v-.4h-.3l-.4-.7v.7l-.2-.4h-2.4v.4h-.9l-.7 1.2-.4.3h-.3v.4h-1.3l-1 .4-.3.2v-.2l-.5-.8v.7h-.9l-.2.4h-.3v-.4h-.5v.5l.1.2h-.6v.1-.1h-1l-.2-.4h-.4v-.4h-1v.4h-.2l-1.3 2v.3h-.2v.4h-.2v1.4h.5v.4h.8l.2.4h.2v.4h.5v.7l.4-.7h.1l.2.4h.2v.3l.2.4v.9h.2v.2l-.2.4v.5l.3.5h1.4v-.4h.7v-.4h1v-.4h.5l.1.1h-.1v.8h-.2v.4h-.3l.3.5v2.1h-.3l.3.5v1.4h-.2v.5l-.7 1.2v1.7h.2v.4h.7v.4h1.9v.3l.3.9h.4v-.1 1.2h.5v.4h.3l.2.4h.6l.2-.4v.3l.3.4.5.4h.7l.2.4h.2v.1h-.2v1.8h.5l.2.4h.2l.2.4h.7v.4h.3l.2.3.5.4h.4v.4h.5v.4h.3l.2.3.2.2v.4h-.6l.4.6h.2l.2.4h1.6v-.4h1v-.4h.5l.2.4h.7v.4h.2v.4h.3l.2.4h.2v.7l.2.4v1.9l.3.5h1.4v.4h1v.4h.5v.4h1v.4h.5v.4h1.6l.2-.4h1.1l.2.3v.6h-.2v.4h-.2v.5l-.2.3h-.2l-.3.5v.3h-.2v.4h-.2v.5l-.2.4v1.2l-.3.5h.3v.5h-.3l.3.5v.3l-.2.4v.4l-.3.4.6.9h.2l.2.4h.4v.4h.2v.4h.3l.2.4h.4v.4h1.2v.4h.3l.7 1.2h.5l.2.4h.2l.2.3v.4l.1.2h-.1v.9l-.2.4v.4l-.2.3h-.3v.4h-.2v.4h-.2l-.5.9v.4l-.2.3h-.3v.5l-.2.4v.4l-.5.8v.3h-.2v.4h-.2v.4h-.2l-.3.5v.4l-.7 1.1h-.3v.6h.2v.1h-.2v1.5h-.3l-.2-.4h-.5l-.2-.4h-.5l-.2-.4h-.2l-.2-.4h-.4v-.4h-.5l-.2-.4-.7-.4v-.4h-1v-2.6h-.2v-.4h-.2v-.4h-.3l-.2-.4h-.2v-.4h-.2v-.3l-.5-.9h-.4v.4h-1.4l-.4.3-.2-.3H243v.4h-.5v-.3h-.2v.3l-.2.4v1.2l-.2.4v1.3h.3l.2.3v1h-.2v.4l-.4.3h-.3l-.2.4h-.2l-.3.5v.3h-.2v3.5h-.2v2.7h-.2v1.5h-.5l.8.6h.5l.2.4h.4v.4h.2v.4h.2v.4h.2v.4h.2v.8h.2v.2l-.2.4v1.7h.3l.2.3.4.3-.1.2h-.3v.9l-.2.4v.5h.2v.1h-.2v1.2h-.2v.5l-.2.4v.5l.9.4-.2.3v.4l-.3.4.6.5h1.4v-.4h.5l.2.4h.2v.9h-.5v.4h-.7v.4h-.2v.4h-.6l.3.5v.9h.2v.7l.2.4v1.8h-2.1l-.2.4h-1v-.4h-1.7v.4h-.2l-.5.8h-.3v.4h-.2l-.5.8-.5.4-.2.4-.8.4v.9l.3.5h.5l.2.4h.7v.4h.5l.4.7v.2h-.2v.9l-.2.4v1.6l.2.8-.2.4v.4l-.5 1.5-.3.4v.8l-.2.4v1.9l-.2.4v.9h1.7v-.4h1v-.4h.6l.5-.4h.3v.3l.2.8v.7l-.5.8v.3h-.2v2l-.7 1.2v.4l-.5.8v.4l-.2.4v.7h-.2l-.5.8h-.2l-.8.4h-.5l-.5.8h-.2l-.2.4h-.2l-.2.4h-.6l-.4-.3-.2-.3v-.4l-.5-.4-.5-.8h-.5l-.2-.4h-2.3v-.4h-.5v-.4h-.6l-.9-.7-.3-.4h-.5l-.2-.4h-1l-.2-.4h-.2l-.2-.4h-.5l-.2-.4h-.7v-.4h-.4l-.5.4h-.1l-.2-.4h-.5l-.2-.4h-.4v.4h-.3l-.4-.7v.7h-.9l-.2.4h-1l-.2.4h-.5l-.5.4h-5.4v.5l-.3.9h.4l-.1.1h-.3l-.2-.4h-.5l-.2-.4h-.5l-.2-.4h-1l.4.6h.2v.2l-.2.4v.4l-.2.4v.3h-.2v.5l-.2.3h-.3v.4h-.2l-.5.9v1.6l.2.4v.2h-.2l-.5.4h-.3l-.2.4h-.8l-.2-.4h-.4v.4h-.9l-.3.9v.4l-.5.8v.4l-.2.4v1.2l-.2.4v.4l-.7 1.1h-.5v.4h-.2v.8h-.2v1.2l-.5.8v.3h-.2v.8h-.2v.4h-.2v.4l-.4.3h-.3v.9l-.2.4v.5l.2.3-.7 1.1v.8l-.2.4v.3h-1.5l-.2-.4h-1l-.7-.4-.5-.4h-1l-.5-.4h-1.1v-.4h-1.8l-1.3.4-.7.4h-.6v.4h-.2l-.5.4h-.4l-.8.4-.8.3v-.3h-2.6v.9l-.2.3h-1.4l-1.7.4h-3.7v1.2l-.2.4v1.8h-.2v1.6l-1.2 1.9v.5l.3.5h.2l.2.3.5.4h.2l.4.3.3.4h.2l.2.4.7.4v.4h.3l.2.4h.2l.2.3v.5h.3l.2.3.8.8h.2l.4.7.5.4h.2v.4h.3l.7.4.4.3v.4h.5l.2.4h1.1v1.8l-.2.4v1.9l-.2.4v.9h.2v.6l-.2.3h-.3v.5l-.2.3h-.2l-.3.5v.5h.3l.2.3v.4l.3.5h.2v.3l.2.4.5 1.5v.4l.2.4v.4l.2.4v.4l.7 1.2v.4l1 1.6h.2v.3l.2.8.8 1.2h.2l.2.3v.4l.3.4.5.4v.4h.2v.3l.8 1.2h.2v1.4l-.2.8v1.2l-.2.4-.7 2.3-.2.4-1 3.3h.5v1.1l.2.4v.3l-.2.4v1.2l-.2.4v.3h-.2l-.3.5v.3h-.2v.4h-.2v1.2h-.2v.8h-.2v2.6h3.9l.2.4h2.2l.5.4h1l.7.4h.7l.4.3.7.8 1.4 1.1.5.8 1.5.8.7.8h.2l.2.6-.5.7-.5 1.1-.2.3h-.3v.4h-.4v.2h.1v.6l-.2.4v.5h.3l.2.3v.9h.3l.4.7-.2.7v.5h.2v.4h.3l.2.7v1h-.2l-.3.8-.4.3h-.3v.4h-.2l-.5.8-.4 1.1h-.3v.4h-.2l-.5 1.2-.2.8-.2.4v.3h-.6l.3.5v.3l.7 2.4.5 1.1v.4l.7 1.2.2.6h-.3l.5.7.1-.2v.1h.7v.4h.2v.3l.2.4v.8l.2.4v.2h-.2v.5l-.2.4v.3h-.2v.5l.2.8v.4l.2.4v2.3l.2.3-.4.3-.5 2v.7l-.2.4v1.2l-.2 1.2v.7l-.2 1.2v1.1l-.2.8v1.1l-.2 1.2v1.2l.2.7-.5.4v.4l-.2 1.2v1.5l-.5.8v.5h.3l.9 3v2h.8l.5.4h.4l.2-.4h2.4l.2-.4v.4h.7v.8h.3l.4.3.3.4h.5l.5.4h.2v.8h.2v.4h.3l.2.4h.2l.2.4h.5l.2.4h1l.2.4h1.4v.4h.3l.2.3.5.4h.4v.1h-.2v.5l-.2.3h-.3v.4h-.2l-.2.4h-.2l-.2.4h-.8v.4h-.2v1.3l.2.4v.8l.5.8v.5h.2v.4h.8l.2.4h.2v.4h.5v.3l.5.9h.2v1.7h-.1l-.8.4-.2.4h-.3l-.2-.4h-.4l-.5.4h-.6v-.4h-.3l-.2-.4h-.2v-.4h-.2v-.3l-.3-.5h-.5l.3.5v.6h-.7v.8h-1.8v.2h.4v.4h1.7v.4h.5l.2.7.3.4.5.4.3.4h.2v.1h-.5v.4h-1.5l-.5-.4h-.2l-.2-.4h-.3l-.4-.3-.3-.4h-1.6l-.2.4h-.5l-1 .8h-.3l-.3.5v.3h-1v.4h-.2v.4h-.2l-.2.4h-.3v1h.2v.4h.2v1.2h.2v.4h.2v.4h.2v.8h.2v.1h-.1v.2h.1v1.5h.2v.4h.7v.4h.5v.4h.5l.2.4h.2v.7l.1.2h-.1v1.2h-.2v1.4h.7v.4h.2v.4h.2v.4h.5v.4h.5l.1.1v.2h3.8l.2.4h.2v.4h.4l-.1.1h-.3v.4h-.2v.4h-.2v.5l.1.2h-.1v.4h-.5v.4h-.2v.4h-.5v.8h-.2v.1l-.2-.4v.7h-.7v.4h-.5v.8h-.2v.9l-.2.4v.4l-.5 1.1-.4.7h-.3v1.2l-.2.4-.5 1.2-.4 1.4h-.2l-1.2 2-.2.5-.3-.5-1.7-1.2h-.2l-.7-.4h-.2l-.2-.4-.7-.4h-.8l-.7 1.2h-.3v.4l-.4.3-.2.4h-.3v.5l-.2.4v1.1h-.2l-.5.8h-.3v.4h-.2l-.2.4h-.2l-.2.4h-.2l-.2.4h-.8v.4h-.5v.4l-.6.3-1 .4-.7.4h-.4l-1.9.7-.4-.3-.3-.4h-.7l-.5-.4h-.2l-.2-.4h-.8l-.7-.4h-.3l-.5-.4h-.5l-.2-.4h-.3l-.5-.4h-.5l-.5-.4h-.3l-.7-.4-.5-.4-.3-.4h-.5l-.2-.4h-.4v-.4h-.5v-.3l-.6-.4h-.5l-.5-.8h-.2l-.7-1.1-.5-.4-.3-.4h-.2v-.4h-.3l-.2-.3-.5-.4-.5-.8-.5-.4h-.2l-.2-.3v-.4l-.5-.4-.2-.7-.5-.9h-.2v-.4h-.3l-.2-.7-.3-.5h-.2l-.9-1.4v-.5h-.3l-.7-.4-1-.8-.7-.4h-.2v-.4h-.3l-.6-.7v-.5h-.2v-.4H163l-.2-.4h-2.5l-.2.4h-.2l-.5.4h-1.1l-.2-.4h-2.3v-2.5h-.4l.2-.4h-4.4v-1.5h-.3l-.5-.4h-.2l-.5-.4h-.7l-.5-.4h-.7l-.5-.4h-.7l-.5-.4h-1.2l-.2-.4h-.8l-.7-.4h-.7l-.1-.1v-.2h-.4l-.5-.4h-.5l-.5-.4h-.7l-.2-.4h-1l-.5-.4h-.2l-.2-.4h-.2l-.2-.3-.5-.4-.3-.4h-.2v-.4h-.7v.3l-.8-.3h-1l-1.2-.8h-2.8l-.3-.5-.5.9h-.2l-.5.8h-.2l-.2.4h-.3v.4l-.4.3-.9 1.4-.1-.2-.2-.8-.3-.5h-.2v-.3l-.5-.4-2.4-.2v-.5h-.2v-.3l-.2-.4v-.4l-1-1.6-.7-.4-.5-.7-.5-.4v-.3l-.3-.4-.2-.8-.5-.8v-.4l-.5-.8v-.4l-.2-.4v-.5h-.3l-.2-.7v-.4l-.5-.4-.5-1.1v-.5h-.2v-.4h-.9l-.5.4h-1.5l-.2.4h-.7l-.3.4-.7.4-.4.4h-.7l-.2.4h-.2l-.5.4h-.3l-.2.4h-.3v.5l-.2.4-.2.7h-.3v.4l-.4.3-.3.4-.5.4v.3h-.2l-1 1.5h-.3v.5l-.4.7h-.3l-.5 1.6-.5.8v.3h-.2l-.5.8h-.2l-.5.9v.3h-.2l-.5.9v.3h-.2l-.5.8v-.8l-.2-.4v-1.8l-.2-.4v-1.8l.2-.4v-7.7l.3-.5h-.5l-.3.5v.4l-.2.3h-.8v.4h-.6l-.5.4h-.3l-.2.4h-.2l-.2.4h-.2l-1 1.5h-2.1l-.5.4H93v-.4h-.4l-.2.4H91l-.2.4h-1.1l-.5-.4h-5.4v.4h-.7v.4h-.7l-.2.4h-4.1l-.5.8-.5.4-.2.4h-.3v.4h-.2v.4l-.4.3h-.4v.4h-.5v.5l-.2.3h-.2l-.5.8-.9.8-.3.4v.3l-.7.3-1.5 1.6-.2.7h-.2l-.5.4-.4.6-.2-.5-1-1.9-.2-.4v-.9h-.2v-.3l-.6-.4h-.2v-.4h-.7v5.2l.2.4v.4l.2.4v.8l.2.4v.5h.4l.2-.4h1v.4h.3l.2.4h.2l.2.4h.2v.4h1l.2.4h.4v.3l1 1.5v.5h.3l.2.3v.5h.2v.4h.2v.4h.7v.4h1.4v.4h.8l.2.4h.7v.4h.2v.3l.2.4v.9h.2v.3l.3.5h.2v.4h.5l.2.4h.7l.2.4h.2l.2.4h.4v.7l.2.4v1.2l.2.4.2.8.3.5h.2v.3l.2.4.3.8h.3l.2.4h.9v.4h.2v.7l.2.4v.5h.3l.2.3v.4l.2.4v1.2h.2v.3l.5.4v.4h.3l.2.4h.2l.2.4h.2l.2.3v.5h.2v.4h.3l.2.4h.2v.4h.5v.3l.5.4.3.6v.2h.1v1.5h.2v.4h.5v.3l.3.5h.4v.4h.2v.4h.5v.4h.2v.3l1 .4.3.4h.2l.5.8h.2l.2.4h.4v.4h.5l.2.4h.2l.2.4h.4v.4h.2v.4h.2v.4h.2v.4h.3l.7 1.1v.5h.2v.3l.5.9h.2v.4h.2v.7l.2.4v.6l.9-.5h1.2l.8-.4 1.2-.4h.3l.2-.4h.3v-.4h.5v-.4h.2v-.4h.4l.3-.5v-1.4h.2v.3l.2-.3h.1v-.1l.2-.4v-.3h.2v-.4h.2v-.4h.2v-.6h-.2v-.1h.3l-.2-.4h.4v-.4h.5v-.4h.5v-.4h.7v-.4h1.2v-.4h.6v-.2l.1-.1h.8v-.4h.7l.2-.4h.5l.2-.3.2.3h.2v.4h.5v.4h1.2v.1h-.1v.2h.4v.4h1l.1.1.4.6h.4v.3h.2v.1h1l.2.4h1.9l.2.4h.4v-.4h1v-.4h.5l.4.7v-.3h.5v-.4h.2v-.1.1h.4l.2-.4v.4h.2v.5h-.2l-.2.4h-.3v.4h-.2v.4h-.2v.4h-.2v.4h-.3l.2.4h-.1v1.2l-.2.4v.4l-.5.8v.3h-.2v.4h-.5v.4h1.6v1h.2v1l-.2.4v.4l-.5.4v.5l.5.8.2.8.2.4.2.7v1.2l.2.4v.7l-.2.3h-.2l-1 1.6-.5.4v.3h-.2l-.5.4-.5.8v1.1h-.7v-.4h-1.3l-.2-.4h-3.4l-.2-.4h-.6l-.5.4-.7 1.6-1.4 2.2h-.2l-.3.5v.3h-.5l.7.6.2.4.5.4h.2v.4h.3l.2.6-.2.4v.4l-.2.3h-.3v.4h-.4l-.3.5v.3h-.2v1.8h.3l.7 1.1.2.7-.4.4-.2.8-.7 1.5v.8l.2.8v1h-.2l-.3.4-.5.4-.5.7h-.5l-.3.5v.5l.2.4v.5h.3l.1.1h-.1l-.2.4h-.3v1h.2v.4h.3l.2.4h.2v.3l.2.4v.2h-.1v.6h.3l.2.4h3.4l.7.4h.3l1.4.8h.3l.5.4h.9v.4h1.8l.8-.4 1.7-.4 1-.8h.2l.5-.4h1V898h.4l.3-.5v-.5l-.2-.3.4-.6h.5v.4h1.3l.2.3v.5h.2v.7l.1.2h-.1l-.4.6h.2l-.2.4h.4l.2.4h.2v.4h.1l-.1.2v.5l.2.4v.5h.2v.6l-.3.5h.3v.4h.5v.1h-.2v.4l-.4-.7v.7h-.4v.2h.1v.7l.3.5h.4v.4h.5v.8h.5l.5.8h.1l-.1.2v.4l-.4.3-.2.4h-.3v.4h-.5v.6h.2v.3l.2.4v.4l.3.5h.9v.3l.1.2h-.4v.9l.3.5h.2v.4h.5v.4h.8l.2.4h.4v.8h.9l.2-.4h.1l.2.3v.3l-.2.4v.8l-.2.3h-1.1l-.4-.7v.7h-.5v1h.2v.4h.7v.1h-.2l-.2.4h-.2l-.2.4h-.3v-.3l-.3-.5h-.2l-.2-.4h-.4l-.2.4h-.3v-.3l-.4.7h-.2l-.3.5v.4l-.2.4v2.1h.3l.1.1h-.1v.4h-.2l-.3.5v.5l.2.4v.4l.3.5h.7v-.4h.2v.5h-.2v.4h-.2l-.2.4h-.7v.5l-.2.4v.3h-.5v.4h-.3v.4h-.2v1h.2v.4h.2v.4h.3l.5.4h.4v.5h-.2v.4h-.5v.4h-.2l-.3.5v.3h-.5v.4h-1.2v.8h-.7v.5l.3.5h.2v.1h-.5v1h.7v.3l.5.8v-.2l.3.2h.2v.4h1.5l.2.3v.2h-.2v.8h-.2v.6h.2v.4h.7v-.4l.2.4h.2v.2l-.2.3h-.5l-.3.5v.5h.3l.2.4h.1l-.3.5h-.9l.3.5v.5h1.4v.1h-.2l-.2.4h-.2l-.2.4h-.4l.3.5v.2h-.1l-.5-.4h-.6v.6h.7v.4h.7v-.1.4l.5.8v.8l1 1.6h.9l.2-.4h.1l.2.3v.2h-.2l-.2.4h-.3v1h.7v.3l.3.5h.9l.2-.4v.3l.2.4v.9h.2v.4h.3l.2.4h.5l.2.3-.2.3v.7h-.2l-.2.4h-.5v.5l.2.4v.5h1v.2l-.2.3h-.3v.5l-.2.4v.3h-.2v.6h.7v.1h-.5v.6h.7l.2-.4v.2l-.2.4v.3h-.2v.4h-.2v.6h.2v.3l.3.5h.2l.2.4h.2v.4h.2v.4h.5v-.5l-.1-.2h.4v.8h.7v-.4h.2v-.8h.2v-.4h.5v-.4h.2v.4h.5l.2.4h.7v-.4h.2l1.5-1.2.7-.4.6-.5-.5-.8v-.7l.2-.3.5-.3v.3h.4l.7-.8h.3l.2-.4h.2l.2-.4h.2l1-.8v-.4l.6-.3h.3v-1.3h.5v-.4h2.1l.2-.4h.8v.3l.3.5h.2v.3l.5.4v.4h.1l-.1.1h-.5v.4h-.6l.4.6h.2v.4h.2v.4h.2v.4h.5l.2.3v.5h.2v.4h.2v.8h.2v.3l.2.4v.5h.2v.8h.2v.4h.2v.3l.2.4v.9h.2v.2l-.2.3h-.3v1.2h-.2l-.2.4h-.3v.6h.2v.6l-.2.4v.8l-.2.3h-1v.5l.2.4v1.2l.2.4v2h.5v.5h-.2v.4h-.2l-.4.6h.7l1-.4 1.4-.4h.2v-.1l.5-.3h.8v-.4h.6l.5-.4h.7l.2-.4h1.4l.2-.4h1.4l.8-.4h5.6l.2-.4h.3l.2.4h2.6l.2.4h5.7v1.3h-.2v1.2l-.2.4v.7h-.2v.4h-.2v.8h-.5v.4h-.2v.4h-.5v.4h-.5v.4h-.5v.4h-.5v.4h-.2v.4h-.2v.5l-.2 1.2v.5h3l.7.4h2l1.4.4h1.2l.5.4h1.7l-.2.4h.6v-.4h.3l.2.4h1.1v.3h.2v-.3h.8l.5.4h1.1v.4h1.5l.2.4h1.2l.2.4h1.2l.2.4h1l.2.4h.5l.7.4h.5l.5.4h.5l1.2.4.5.4h.7l.2.4h.7v.4h1.2v.4h.3l1.2.4h.4l.2.4h.8l1.2.4h.4l.2.4h.2l.2.4h1l.2.4h1l.2.4h1.2l.2.3v.1h.5l.2.4h.9v.3h.2v-.3.1h.7v.4h1l.5.4h.5l.2.3v.1h.1l.2.3v-1.2h.5l.2.4h1l.2.4h.5l.2.4h.4v.4h.3l.5.8h.2l.2.4h.2v.4h.3l.7 1.1.7.4.2.4.8.8h.2l.7.8h.4v.3l.5.4 1.2.4.7.4h.3l.7.4 1 .4h.5l.2.4h1.6l.2-.4v.4h.4l.7-1.2h.4l-.4-.6h-.2v-.4h-.5l-.2-.3v-.5h-.3l-.7-1.1v-.9h-.2v-.4h-.2v-.4h-.2v-.4h-.7v-.1h.2l.8-1.2v-.3h.2l.5-.4h.3l.2-.4h.5v-.4h.2l.2-.4h.3v-.5l.2-.3h.2l.8-1.2v-.3h.2v-.6h-.5v-.1h.2v-.5l.2-.3h.2l.5-.4h.2l.8-.4h.8v-.4h.7v-.4h.2v-.4h.2v-.4h.5v-.5l.2-.3h.3v-.5l.2-.3h.5v-.2h.2v-.4h.2l.2-.4h.3v-.4h.2l.5-.4.3-.4.7-.4h.3l.2-.4h.8v-.5l.9-1.4h.5l.6-.4v-.3h.2l.3-.5v-.7h.2l.5-.4h.2l1.5-.8.2-.4h.3l.3.5.3-.5h.3v-.4h2.4v-.4h.4l.2-.4h.3v-.4h.2l.5-.9v-.3h.6l.5-.4h.1v.4h1v-.4h.5v-.4h.4l.2-.4h.2l.5-.4h.3l.7-1.2h.3v-.4h2.2v-.4h.4l.2-.4h.3v-.4l.7-.4v-.3h.5v-.4h.5v-.4h.5v-.4h1.7v-.4h.5v-.4h.5v.4h1.2v-.1.1h.4v-.4h.4v-.1.4l.4-.7h.2l.2-.4h.3v-.4h1.2v-.4h.5v.2l-.2.4v.5h.7V962h.7v.4h1v-.4h.2v.5l.6-.5h.8v.1h.2v-.4h.5v-.4h1.1v-.1.1h.4l.2-.4h.7l.2-.4h2.2v-.1.1h.2v.3h.2v-.3h.5v.4h.5v-.5l.2-.3h.3v.1h-.1v.2h.4v-.4h.2v-.4h1.4l.5-.4h1l.2-.4h.2l.2-.4h.8v-.4h.7l.2-.4h.5v-.4h.7v-.1.1h.4v-.1h.2v-.4h.5v-.4h.2l.2-.4h.7l.2-.4h.9v-.2h-.1v-.1h.7l.2-.4h.2l.2-.4h.2l.2-.4h.5v-.4h.2v-1.2h1.2v.4h.7l.2-.4h.5l.2-.4h.5v-.1.1h.4l.2-.4h.3v-.4h.5v-.4h.7l.2-.4h.5v-.4h.2v-.4h.5v-.4h.7l-.7-.6-.4-.7.2-.3v-.3h3.9l.2.4h1.6v.8h1.3l.2.4h1.6l.2-.4h.5v-.1h.2v-.3h.1v-.2l.1-.1h1v.8h.5v-.8h.5v-.4h1.1l.2-.4h.3v-.5l.2-.3h.3v-.5l.2-.4v-.3h.2l.3-.8.3-.4v-.4l.5-.7.2-1.1h.3v-.4h.2l.5-.8h.8v-.4h.2v-.6h-.4l.6-1v-.4l.2-.3h.5l.2-.4h.3v-.2h.2v-.5l.7-1.1h.2l.2-.4h.2l.2-.4h.5l.2-.4h.2l.2-.4h.5v-.4h.5v-.4h.9l.2-.4h1.2l.2-.3.4.6v-.7h1.2v-.4h.3l-.2-.4h1.8V930h.5v-.4h.2v-1h-.2v-1.3h.4v-.2h-.1v-.4h-.3l-.2-.4h-.7v-.2h-.5v-.4h-.2v-1h-.1v-.1h-.2l-.2-.4H327v-.4h-.5v-.4h-.2v-.3h-.5v-.4h-.7v-.4h-.5v.5l-.2.3-.4.3.1-.2v-.3h.2v-.6h-.2v-.3l-.3-.4-.2-.8-1-1.6h-.2l-1.4-2.3h-.2v-.4h-1.2v-.4h-.2v-.1h.2v-.8h.3l-.3-.5v-.5h-.2v-.4h-.3l-.5-.8h-.2v-.4h-.3l-.4-.7v-.5h-.2v-.3l-.3-.5h-.2v-.4h-.2v-.4h-.2v-.3l-.3-.5h-.2v-.4h-.3l-.2-.3.2-.3.5-.4.7-.8.4-.7v.2l.2-.2h.1v-.1l.9-1.1.5-.4.7-.8.5-.4v.1h.2v.3l.2.4v.5h.5v.4h.8l.2.4h.7l.2.4h.2l.2.4h.2v.1h-.2v1h.2v.4h.5v-.4h.7v.5h-.3l.2.4h-.1l-.2.4h-.3v1.4h.2v.4h2l.4.7v.4l.3.5h.2l.5.8h.2v.3l.3.5h.2l.2.3.5.4v.4l1 .8.7.4h.3l.7.4 1 .8h.2l.5.4.7.4h.9v.4h1.2v.6h.2v-.3h.5l.2.4h.9v.4h1l.2.4h.5l.2.4h.7l.5.4h.4v.4h1.3l.2.4h.7l.2.4.7.4h.3l.5.4h.2l.2.3.5.4h.5l.2.4h.2l.2.4h.2l.2.3v.5h.5v.4h.3l.2.4h.2l.2.4h.4v.4h.3l.5.8h.2v.4h.9l.2-.4h1v.4h.5v.4h.2v.8h.6v-.2h-.1v-.1h.5v.3h.2v-.3h.7v.4h.5v-.4h1.7l.5.8h1l.2.3v.5h.5v-.4l.1.1v.2h.6v.4h1l.2.4h.2v.4h.7v.1h-.2v.6h1.2v-.4h.2v.7l.4-.7v.4h.7v.3h.2l.1.1h.2l.6 1-.6.9.6-.5v.1h.5l.2.4h.2v.3l.3.5h.2l.2.3v.5h.2v.4h.2v.4h.2v.1h-.2l-.2.4h-.8v1h.2v.4h1.2v-.4h.2l.4-.3.4.7h.2v.4h.3l.5.8h.2v.4h.3l.2.8h.2v.3l.2.4v.2h-.1v.2h.1v.4h.7v.4h.5v.8h.3l.5.7.7.4.5.4h.2l.4.3.3.4h.5l.2.4h.7l.2.4h1.2l.5.4h1.6v.4h1.2v.4h.2v.4h.7l.2-.4h1.8l.2.4h.7l.2.4h.5l.2.4h.5l.2.4h.4v.4h.5l.5.8h.2l.2.4h.2v.4h.5v.4h.2v.4h.3l.2.4h.2v.4h.3l.2.3 1.4 1.5.2.4.5.4h2.2l1-.8.2-.4h.3v-.4h.2l.2-.4h.3v-.4h.2l.7-1.2.7-.8.2-.4.5-.4.7-.7 2.1-.4 3.6-.8.9-.4 2.1-.4h.7l.2.4h.2v.4h.3l.4.7.5.4.2.4.5.4.5.8h.2l.7 1.2h.7l.2.4h1.8l1.2-.4h2l.2-.4h1.2l.2-.4h.9l.8-.4h1l.2-.4h.9l.5-.4h.7l.8-.4h.3l.5-.4h.4l1.5-.8h1.5l.5-.4h1l.5-.4h1.2l.5-.4h1.5l.2 1.2h.2l.2.7.2.4v.3h.2v-.4l-.2-.4v-.4l-.3-.4v-.1l-.2-.3v-1h.4l.2-.4h.7l.2-.4h2.5l.8-.3v.8h-.3l.3.5v1.6h.2v.7l.2.4v.4l.2.4v.4l2.7 4.3h.2v.4h.3l.7.8h.4l.2-.4h.8v-.4h.5v-.4h.2v-.6l.5-1.3h-.5l-.2.4h-.3v-.1h.2v-.5l.6-.9h-.6v-.4h-.2v-.4h-.2v-.4h-.5v-.4h-.2v-.4h-.3l-.2-.4h-1.1v-.4h-.2v-1.2h-.3l-.2-.4h-1.1v-.1h5.1l.7.4h3.9l1.4.4h2.9l1.2.4h2.6l.5.4h.3l.7.4h1.2l.2.4h.7l.2.4 1 .4 1.2.4h.7l.5.4h.9l.2.4h1.2l.2.4h1.2l.7.4h3.2l.2-.4h4.9l.5.4h2.8v.3l.2.4v.5h.8l-.6-.9v-.2h1l.4.7v.5h1l.5.4 1.2.8 1.5.8.9.4.5.4h.5l.7.4 1.7.4 1 .4 1.2.4 2.4 1.2 1.4.4.5.4 1 .4.7.4.9.4.7.4 1 .4h.2l1.4 1.1 1 .4 1.2.8 1.5 1.2h.2v.3l1 .4 1.5 1.2h.4v.4h.6l2.4 1.5 1 1.2 1.9 1.5.7.8.2.2h-.2l.7.6.5.8h.2l.2.3 1 .8.3.4h.3l.5.4.7.4.5.4.5.8.5.4.5.8 1 1.2 1.2 1.1 1 1.2.5.4.3.8h.4v.3l.3.5h.2v.4h.5v.3l.3.5h.2l.2.4h.2l.5.8h.2l.2.4h.2l.2.4h.2l.2.4h.5l.2.4h2.8v-1.6l.2-.4v-.3h.2v-.3h.2v-.5l.2-.3h.2l.5-.8h.2l.5-.4.2-.4h.3v-.4h.2l.2-.4h.3v-.4h.2l1-1.6v-.3h.2l.8-1.2v-.3h.2v-.4h.2v-.4h.2v-.4h.2v-.4h.2v-.4h.2v-.4h.2l.3-.5v-.4l.4-.7h.3v-.4h.2v-.1l.5.8v-.7h.7l.4-.6h-.6l-.2-.4h-.2v-1l.2-.4v-1.1h.2l.6-.4v-.4l.2-.7h.3v-.4h.2v-.6h-.2l.2-.6.5-.7.9-.8.2-.4h1.2l.5-.4h.3v-.4h.3l.1.1v-.1h.3l-.2-.2.1-.2h.5l.5-.4h.5l.2-.4h.3v-.4h.1v-.2h-.4v-.4h-.1l.4-.6-.3-.4v-.5h-.3l-.2-.3.4-.6h.4v-.2h-.1v-.1h.2v-.4h.4l.1-.1h.3v-.1l.2.4v-.7h.2l.2-.4h.3v-.4h.2l.3-.4 1.9-1.5h.3l.2-.4h.5l.2-.4h.5l.2-.4h.2l.2-.4h.7l.8-.4 1-.4.5-.4h1.2l.2-.4h.4l.8-.4h.7l1-.4.7-.4.4-.4h.7l.8-.4h.8l.2-.4h1l.2-.4h1.9l.2-.4h3.8l.8-.4h.5l.2-.4h1l.2-.4h1.7l.2-.4h.9l.5-.4h.2l.5-.4 2.1-.4h.5l.2-.4h.7l.2-.4h.5v-.4h.2l.2-.4h.5l.5-.4h1.2l.2-.4h.3v.4h.5v-.4h3.1l.2-.3.5.4.3-.4h.1l.3.4.6-.4h3.1l.2-.4h.5l.2-.4h.7l.8-.4h.7l.5-.4h3.6l.8-.4h3.2l.2-.4h.3v-.4h1v-.4h1.1l.2-.4h.8v-.4h.7v.1h.5v-.4h1.7v-.1.1h.4l.2-.4h1.3v-.4h.7v-.4h.4l.2-.4h.5l.2-.4h.8v-.4h1.2v-.2h1.9l.2-.4h2.5v-.4h2.7l.2.4h2.4l.2.4h1l1.1.6-.5-.8v-.4l-.1-.2h.1v-.4h.5v-.4h1.9l.2-.4h.8v.7l.2-.4v.1h.2v.7l.4-.7h.3v.8h.8l-.3-.5v-.7h5l.2-.4h1.3l.2.4h1.6v-.4h8.8l.5-.4h1.8l.5.4h.8l.2-.3.2.3h2.6l.2.4h11.5v-.4H681.1v-.4h4.1v-.4h2.6l.5-.4h2.4l.2-.4h2.2l.2-.4h2.2l.2-.4h2.2l.2-.4h3.1l.2-.4h1.7l.2-.4h1.4l.2-.4h1.4l.2-.4h1l.2-.4h1.2l.2-.4h1.3v-.4h1.9v-.4h.2v-.4h2.3l.5-.4h1v-.4h1.2v-.4h.9l.2-.4h1.3v-.4h.2v-.4h1v-.4h.7v-.4h.5l.1.1.1-.1h.2l-.1-.1.2-.3.4-.3h.6v-.4h1.4l.5-.4h.5l.2-.4h.7l.2-.4h1.1l1-.4h.3l.5-.4h.7l.5-.4h.6v-.4h1.1l.2-.4h.2l.8-.4h.7l.3-.2v.2h.7v-.4h1.4v-.4h1.4l.2-.4h1l.2-.4h1.1l.8-.4h1.5l.5-.4h8.1l.5.4h2.6l.2.3v.1h.1l.4.7v-.9h-.1l.4-.6v-.3h.2v-.4h.4l-.4.6v.4l-.3.5h.6l.3-.9v-.4l.3-.5h-.1v-.1h2l.2.4h6.5l.2.4h2.9l.2.4h2.7l.5.4h3.1l.4.7v-.7h.6l.5.4h2.1l.2.4h2.4l.2.4h1.7l.2.4h.4v-.1.1h3.2l.2.4h1.9l.5.4h.9l.4.7v-.3h1.7l.2.4h.7v.4h1.7v.4h1.3l.9.4.7.4h1.4v.3h.2v-.2l.8.3h.7l.9.4h1.6v.4h.8l.5.4h.7l.2.4 1.4.4v-.3l.3.2 1.5.4.7.4h.3l.5.4h.9v.4h.3l.2.3v.6h-1v4l-.2 3.2 5.9.8 3 .8.2-7.1v-.1l-1.4-.4.2-.6h.5v.4h1l.2.4h.7l.2.4h1.1v.4h1v.4h.7v.4h.7v.4h.5v.4h.7v.4h.5l.2.4h1l.2.4h.7v.4h.5v.4h.7v.7l.3-.4h.2v.1h.5l.2.4h1.9v.4h.5v.4h1l.4.7v-.7h.5l.4.7v-.3h1.2v.4h1.9v-.4h.2v.4h.3l.2.4h.2l.2.3v.1h.1l.1.2.1-.2h.6l.2.4h.7v.4h.7v.4h.8l.2.4h.7l.2.4h.7v.4h.7v.4h.5v.4h.7v.4h1l.2.4h.5l.2.4h.5l.2.4h1.9v.4h.5v.4h1v.4h1.3l.2.4h.5l.2.4h.7v.4h.8l.2.4h1.4l.5.8h.4v-.4h.7v.4h.7v.4h.5l.4.7v-.3h.5v.4h.5v.4h.5v-.4h.5v-.4h.8l.5.4h.5l.5.4h.2l.2.4h.7l.2.4h.7l.2.4h.7l.5.4h.2v.4h.5v.4h3.1v-.4h2.7l.5.4h.7l.2.4h.2l.4.7v.1h.1l.2.3v.1h.1l.2.4h.2v.4h.5l.2.4h.3v-.2h-.2l-.2-.4h-.2v-.4h-.3l-.2-.4h-.2v-.4h-.2v-.3l-.3-.5h-.2v-.1h.2v-.4h.4l.5-.8h.3v.3l.6.4h.2l.2.4h.5l-.6-.9.2-.3h.2l.2-.4h2.3l.5.4h.9v.4h.5l.2.4h.5l.2.4h.7v.4h.5l.2.4h.5l.2.4h.2l.2.4h.5l.2.4h.2l.2.4h.2l.2.3.5.4h.2l.2.4h.4v.4h.3l.2.4h.2l.2.4h.4v.4h.5l.2.4h.2l.5.8h.4v.4h.3l.2.4h.2l.2.3.5.4h.2l.2.4h.2l.2.4h.2l.5.8h.4v.4h.3l.8 1.3.2-.4.2.3h.4v-.1l.3.5h.3l.5.4h.2v.4h.2v.4h.1l-.2.4h.3v.4h1v.4h1v.8h.5v.4h1.2v.4h1v.4h2.2v.4h1v.4h1.2v.4h1v.4h.5v-.4h.5v.4h.5v-.6h-.2v-.5h.9l.6-.4.2.4v-.7h.2v-.4h.8l.2.4h2.1v-.4h.5v.1h-.2v.6h.5l.5.8h.5l.2.4h.7l.2.4h.9v.4h.5v.4h.7v.4h1v.4h1.3l.2.4h.2v.8h.6l.6.5v-.3h.2v-.3h.5v.4h.5v.1h-.5v.6h.7v.3h.2v-.3h1.2v.4h1.9v.4h.5l.2.4h.5l.2.4h.7v.4h.5v.4h.5l.2.4h.2l.2.4h.7l.5.8h.2v.3l.5.8v.5h.2v.4h.2v.4h.5l.2.4h.2l.2.4h.7l.2.4h2.6v.4h.5v-.1.1h.2v.4h1.2v.7l.4-.7h1.1l.2.4h.4v-1.5l.2.4v-.7h.2v.4h1.7l.2.4h1.4v.4h.7l.2-.4h1v.7l.4-.7h.5v.8h.7v-.4h.9l.2-.4h.2l.2-.4h.2v-.1.5h.5v-.4h.7l.2-.4h.2l.2-.3.6.5v-.5h.9v.4h.5v.4h.2v.6h.2v-.3h.2v-.5h.2v-.3l.2-.3h.3v-.4h.7v-.4h.2v-.8h.2v-.4h.2v-.4h.2v-.8h.2v-.4h.2l.3-.5v-.3h.2v-1.2l.2-.3h.2v-.2l.1-.2v-.3h.7v-.4h.2l.2-.4h.2l1-1.5h.2l.5-.9v-.2l.2-.1.2-.4h.1v-.1l.2-.3h.3v-.1l.4-.3.4-.3h.3v-.1l.3-.5h-.6v.4h-.4v.1-.2h.2v-.5l.2-.3h.3v-.4h1v-.4h.2v-.4h.2v-.4h.2l.2-.4h.2l.2-.4h.3v-.4h.5v-.8h.2l.2-.4h.3v-.5l.2-.3h.1v-.1l.1-.2h-.1v-.2l.2-.3h.2l.2-.4h.2l.8-1.2v-.3h.5v-.5l.2-.4v-.4l1.1-1.8h.2l.5-.8h.3v-.4h.2l.2-.4h.2l.3-.5v-.3h.4l.5-.8h.2l.2-.4h.5l.2-.4h.2l.2-.4h.3v-.4h.7v-.5l.2-.3h.2l.8-.4h.3l.3-.4.9-.4.7-.4h.3l.5-.4.9-.4h.2l.8-.4h.3l.2-.4h.2l.5-.9v-.3h.5v-.5l.2-.3h.5l.2-.4h.5l-.7-.6V943h.2l.3-.5v-.3h.2v-.4h.2v.3l.7-1.2v-.3h.2v-.5l.8-1.3.9-1.5.1-.2v-.7h.2l.5-.8h.2l1.4-2.3h.3v-.4h.2l.3-.4.5-.4.2-.4h.3v-.4h.4l.2-.4h.5l.2-.4h.5l.2-.4h1.2l.2-.4h.2l.2-.4h.3v-.2h.2v-.4h.7v-.4h.2v-.4h.4v-.2h-.1v-.1h1.4v-.4h.4l.3-.5v-.3h.5v-.4h.9l.2-.4h.8v-.4h1.1l.2-.4h.7l.2-.4h.8v-.3h.4l.2-.4h.5l.2-.4h.5v-.4h.4l.2-.4h1.7v-.1l.1.2.3-.5h.5v-.5.1h1.2v-.4h.7v-.4h.1v-.2h-.1v-.1h1.1l.5-.4h.8v-.4h.4l.2-.4h.3v-.3h.5v-.4h1v-.4h1.6l.2-.4h3.7v-.4h2.6l.2-.4h2.9l.5-.4h.7l.2-.4h2v-.4h2.6v-.4h1.9v-.4h1.8l.5-.4h3.1v-.1.1h.4l.2-.4h.8v-.2h2l-.2-.4h.1v-.4h1.1l.2-.4h.7l.3-.2v.2h.7v-.4h.7l.2-.4h1.3l.1.2.3-.5h.2l.2-.4h1.1l.2.3v-.3h.1l-.1-.2v-.2h.7v-.4h1v-.4h1.1l.2-.3.4.6v-.7h.4l.5-.4h.6v-.3h.7v-.4h.2v-.4h.6l.5-.4h1.3v-.4h.1l.8-.4h1l.5-.4h.5l.2-.4h.8v.4h.5v-.4h.7l.2-.4h1.2l.2-.4h3.2v-.4h5.6v-.2h-.6v-.1h2.4v-.4h.8l1-.4h.3l.2-.4h1.4l.5-.4h1.5l.2-.4h.3l.3.4.6-.4h4.1l.2-.4h.2l.5-.4h1.2v-.2l.3-.5h.3l.4.7v-.9h-.1l.1-.1h1.7l.3-.5v-.3h.2l.2-.4h.2l.2-.4h.5v.4h.5v-.4h.9l.2-.4h.2v-.1.1h1v-.4h2.1l.2-.4h2v-.4h1v-.4h.4l.2-.4h.3v-.4h.2v-.4h.2v-.1h.2l.2-.4v.3h.2v-.3h1.4v-.4h.5v-.4h1v-.4h.7v.7l.4-.7h.5v-.4h2l.2.4h.4l.4-.6h-.3v-.1h.5v-.4h.4l.2-.4h1.2l.2-.4h1v-.4h.9l.2-.4h.5l.2-.4h.9v-.2l.1-.1h.8v-.4h.5v-.4h.5v-.4h.4v-.2h-.4v-.5h.2l.5-.8h.3v-.5l.2-.3h.2l.3-.5v-.3h.2l.2-.4h.2l.2-.4h.3v-.4h.4l.2-.4h.2l.7-1.2h.3v-.4h.2l.5-.8.7-.8.2-.3h.3v-.4h.2v-.4l.4-.3.5-.7h.2l.2-.4h.2l.3-.4.4-.3h.3l.3-.4.7-.8.2-.3h.2l.5-.8h.5l.3-.5v-.4l.4-.3h.6v-.4h.2v-.4h.2l.2-.4h.2l.2-.4h.2l.2-.4h.2l.3-.4.9-.8.2-.4h.3v-.5l.2-.3h.2l.2-.4h1v-.4h.5v-.4h.2v-.4h.4l.2-.4h.2v-.2l.1-.1h.7l.2-.4h.5v-.4h.5v-.5l.2-.3h.2l.2-.4h.7l.5-.8.2-.7v-.4h.9l.5-.4h.3v-.4h1.2v-.4h.2l1-.8.3-.4.4-.3h.3l.2-.4h.3v-.5h1.9l.2-.4h1v-.4h.7l.3-.4.9-.4h.3v-.4h.7v-.4h.4l.2-.4h.7l.2-.4h.5l.5-.4h.5l.2-.4h.5l.5-.4h.7l.2-.4h.5l.2-.4h.8v-.4h2.1l.5-.4h3.2v-.4h2.5v-.2h-.8v-.1h6.7v.4h1.3l.5.4h1.2l.2.4h1.4l.2.4h.9v.4h2.5l.5.4h1.5l.7.4h.5l.9.4h1.7l.2.4h1.2l.2.4h1.9v.4h2.4v.4h.8l.2.4h1.5l.5.4h2.1l.2.4h1.5l.5.4h1.6v.4h2.2v.4h1.4v.4h2.7l.2.4h2.2l.2.4h1.9l.2.4h1.9v.4h1.7v.4h2l.2.4h1.4l.2.4h1.6v.4h2.5l.5.4h2.7l.7.4h5.5l.2.4h.4l.2-.4h1.5l.3.4.8-.4h2.2l.2-.4h.5l.2-.4h.5l.2-.4h.5l.2-.4h.2l.2-.4h.3v-.5l.2-.4v-1.7h-.2v-1.7h.2v-1.2h.2v-.9l.2-.8v-.8l.2-.4v-.4l.2-1.6v-4.2l-.2-1.9-.2-2.3-.2-1.6-.2-.8-1-1.5v-.8l-.2-.4v-.8l-.2-.4v-1.6h-.2v-1.4l-.2-.4v-1.6h-.2v-1.4l-.2-.4v-1.9l-.2-.4v-2.7h-.2v-1.8l-.2-.4V823l-.2-.4v-.7l.2-.4v-1.2l-.2-.4v-2.7l-.2-.4v-.3l.2-.4.3-.8v-.4l.2-.4v-1.4h.2v-1.2l.2-.4v-.4l.2-.4v-.6h.2v-.8h.2v-.9l.2-.4v-.4l.2-.4v-.3h.2v-.5l.2-.4v-.3h.2l.3-.5v-.4l.2-.3h.3v-.5l.4-.7h.3v-.2l.2-.4v-.4l.5-.8v-.3h.2v-.4h.2v-.5l.2-.4v-.3h.2v-.4h.2l1.4-2.3h.2l.5-.8.5-.4v-.3h.2l2.2-3.5h.3v-.5l.4-.7.5-.4.2-.4h.3v-.5l.2-.3h.2l.5-.8h.2l.7-1.2h.3v-.4h.2l.2-.4h.3v-.4l.4-.3h.3l.3-.5h.2l.5-.8h.2l.2-.4h.2l.5-.8h.2l.2-.4h.3v-.4h.5v-.4h.2l.2-.4h.3v-.4h.5v-.4h.2l.6-.4v-.2h.2l.2-.4h.3v-.4h.2v-.4l.7-.4.5-.4.2-.4h.2l.2-.4h.2l.2-.4h.3v-.4h.2l.2-.4h.2l.2-.4h.2l.3-.4.5-.4.3-.4.5-.4.2-.4h.5l.2-.4h.2l.6-.5v-.3h.5v-.4h.4l.2-.4h.2l.2-.4h.5l.5-.4h.3v-.4h.4l.2-.4h.2l.5-.4h.3l.2-.4h.5l.2-.4h.5v-.4h.7l.2-.4h.5l.5-.4h.5l.2-.4h.5l.2-.4h.5l.2-.4h.7l.5-.4h.7l.5-.4h.3l.2-.4h1l.2-.4h.7l.8-.4.9-.4h.8l.2-.4h1.2l.2-.4h1v-.4h1.4l.5-.4h.7l.8-.4h1.3v-.4h1.9l.2-.4h1.7l.2-.3.2.4.3-.5h1.9l.5-.4h3.1l.2-.4h1.9l.2-.4h2.1l.5-.4h6.4l.2.4h2.2v-.2h-.1v-.1h.5v.4h.2v.4h.8v-.2h-.1v-.1h.4v-.2h-.1v-.4h-.2v-.1h.4l.5-.4h.5l.2-.4h.7l.2-.4h1.2l.2-.4h2.4l.2-.4h1l.2-.4h.8l.5.8h1.8l-1.2-.6h-.5l-.2-.3-.5-.6h.1-.4l.1-.1h.3v-.4h.2l.2-.4h.2l.5-.4.2-.4h.5v-.4h2.7l.2.4h.8l-.2-.4h1.1v-.4h.2v-.6h-.7l-.2.4h-.1l-.2-.4h-.4v-.1h.9l.3-.5v-.5h-.2v-1.1l-.1-.2h.1V749l.2-.3h.3v-.5l.2-.3h.2l.5-.8h.2l.2-.4h.2l.2-.4h.3v-.4h.2v-.4h.9l.2-.4h.5v-.4h.9l.2-.4h.8v-.4h1.4l.2-.4h.5v-.4h1.9l.2-.4h1.1l.2.3v-.7h2.2v-.1.1h.4v.4h1v.4h.5v-1h1.2v.4h.2v.4h.2v.4h.7v-.4h1.7v-.4h1.4v-.4h.2v-.4h.7v-.4h3l1.3-.4 4.3-2.3.2-.4h.3v-.4h1v-.4h1.6l.2-.4h2v-.4h.5v-.4h.2v-.4h.2v-1.2h.4l.8-.4h.3l.2-.4h1.7l.2-.4h1.9l.8-.4h.2l.4.3.2.4.7.4.3.4h1.9l.5.4h2.3v-.6h-3.4l-.2-.4h-.3l-.5-.4h-.2l-.9-.7-.2-.3v-.2l.2.4h1l-.8-.4-.4-.6h-.1v-.1l.6.7h.5v-.2l.5-.5 1.4 1.1h.2v.4h.4v-.2h-.1v-.4h-.1l-2.1-1.5-1.4-1.1v-.2h.2v-.4h.2v-.5l.2-.4v-.3h.2v-.4h.2v-.4h.5v-.2h.4l.2-.4h.5v-.4h.5v.3h.2v-.3l1.1-.3h.6l.5 1.6 2.1-1.2.2-.3.6.7h.6l-.9-1-.4-.6h.4l.2.4h.2l.2.7.2-.1-.2-.8v-.2l.7 1.7v-1l-.4-1h.2v.3h.1l.1.4.3.4.2-.1-.2-.4v-.4l.1.1 1.4-.4.2 3.2h-.1v.2h.4l-.2-5.5.2-.3h.5v-.3h1v-.4h.2l.2-.4h.2v-.1.1h.5v-.4h2.3l.3-.5v.1h1.7v-.4h1v-.4h1v-.4h1.2v-.2h.8l-.2-.4h.6v-.4h.5v-.4h.2l.2-.4h.8v-.4h.4l.2-.4h.2l.2-.4h.3v.3l.2-.3h.1v-.1l.2-.3h.1v-.1l.1-.2h-.1v-.1h.2l.2-.4h.3v-.8h.2v-.2h.5v-.4h.2v-.4h.3l-.2-.4h.4v-1.5h.2v-1.2h.2v-.8h.2v.3l.2-.3h.1v-.1l.2-.3h.3v-.1l.2.4v-.8l.2-.3h.5v-.4h.5v-.1h.2v-.3h.5v-.4h.2v-.4h.2v-.4h.2v-.4h.2v-.4h.2l.2-.4h.3v-.4h.1l-.1-.2v-.1h-.1l-.1-.1h.1v-.1h.2v-.8h.2v-.4h.2v-.4h.2v-.4l.2-.7h.3v-.8h.2v-.9l.2-.4v-.2h.2v-.8h.2v-.9l.2-.4v-.4l.2-.4v-.7h.2v-1.6l.2-.4v-1.6l-.2-.4v-4.8h.2v-2.9h-.2v-4.1l-.2-.4v-1.8l.3-.4-.3-.4v-3.1l-.2-1.1V668h.2v-3.9l.2-.4v-.8l-.2-.4v-5.4l-.2-.4v-1.5l-.2-.4v-1.2h-.2v-1.2h-.2v-1.2h-.2v-.7l-.2-.4v-.4l-.2-.4v-.4l-.2-.4v-.8l-.2-.4v-.2l-.2-.4v-.3l-.2-.8-.5-.8v-.8l-.2-.4v-.5h-.2v-.6l-.3-.9h-.2v-.3l-.2-.4v-.8h-.2v-.8h-.2v-.2l-.2-.8v-.4l-.2-.4v-.4l-.2-.4v-.9h-.2v-1.2h-.2v-.3l-.2-.8v-.5h-.2v-.7l-.2-.4v-.4l-.2-.4v-.5h-.2v-.3l-.2-.4v-1.6h-.2v-1.2h-.2v-1.5h-.2v-1.8l-.2-1.1v-2.4h-.2v-1.2l-.1-.2h.1v-.8h.2v-3.6l-.2-.4v-3.5h-.2v-1.7h.2v-.5l.2-.4v-.3h.2l.3-.9v-.3h.2v-.9l.2-.8v-.4l.5-.7.3-1.2.2-.7h.2l.2-.4h.3v-.6h-.5l-.2-.7-.1-.2.7-.3h-.9l.1-.1h.5v-.4h.5v-.8h.2l.3-.5v-.3h4.4l1.5-.4h1.2l1.5-.8h1.4l.5.4h3.3v-.4h.4l.5-.8h.2l.3-.5v.1h.2l.5-.9v-.4l.2-.4v-.8l-.2-.3.2-.3v-.3h.2l.7-1.2h.5v-.4h.2v-.4h.2l.5-.8h.3v-.4h.2l.8-1.6v-.3h.2v-.5l-.3-.4-.5-.4h-.2v-.4h-.5v-.1h.4v-.2h-.1v-.5h.2v-.4h.2v-.4h.2v-.4h.2l.3-.5v-1.1h.2v-.4h.2v-.4h.5v-.9l.2-.4v-.3h.2v-.6h-.2v-.1h.2v-.4h.2v-1.4h-.2v-.5h.2v-.4h.2v-.6h-.5v-.1h.2v-.4h.2v-.4h.2v-.5l.2-.4v-.3h.2v-1.4h-.2v-.4h-.2v-.1h.5v-.8h.1v-.2h-.1v-.8h-.2v-.1h.2v-.5l.2-.3h.5v-.4h.2v-.6h-.2v-.1h.2v-.4h.2v-1.8h-.2v-.1h.2v-.4h.1v-.3h-.1v-.1h.2v-.5l.2-.4v-.9h-.2v-.2h15zM976.1 968l.5-.1-.1.1h-.4zm-2 2.7zm-677.5-17.3h-.2v-.1l.2.1zm-84.7 34.9h-.2v-.1l.2.1zm-1.2-.3zm1217.7-387.9l-.2.1v-.1h.2zM559.9 965.3l.2-.1v.1h-.2zm-265.6-11.6zm679.6 17.2v.3l-.3.3.3-.6zM176.1 342.1h.2v.1h-.2v-.1zm5.1 20.1l-.1-.2h.1v.2zm37.9 122.3v.1-.1zM131 910.7h.5v.4h.2v.1h-.5l-.2-.3v-.2zm78.2 76.7l.2.1-.2-.1zM326.4 925h-.5v.4h-.2l-.5.4h-.6v-.6l.4-.3h.3v-.4h.2l.2-.4h.5v-.1 1h.2zm-2.4 1.1l.2-.1h.1v.2l-.2.3-.1-.4zm2.7-2.3h-.2.2zm6.4 4v-.2h.1l-.1.2zm641.3 42.5v-.5h.4l-.4.5zm.9-1.1h-.2v.3l-.2.2v-.3l.2-.4v-.3h.2l.1-.1h.2v.3h-.2l-.1.3zm.3-1h.4v-.1.2h-.5l.1-.1zm248.8-107.4h.1-.1zm224.9-307.1h-.2v-.1h.2v.1zM634.2 327.5l.2-.3-.2.3zM339.6 162.9h-.7v-.1h.7v.1zM129.5 943.3h.5v.1l-.5-.1zm83 45.4l-.2-.1h.8l.1.1h-.7zm514.2-60.6l-.1-.2h.1v.2zM964 979.8zM216.1 1027.1h.5v.2h-.5zM215.2 1027.8h.5l.4-.7h-.9z"/><path class="regions" d="M430.3 1012.5h-.2v-.4h-.2v-.3l-.3-.5h-.2l-.2-.4h-.2v-.4h-.2v-.3l-.5-.8v-.3h-.8l-.7-.7-.7-.5v.5h-.3l-.5-.8h-.3l-.7-.7-.2-.4-.5-.4h-.5l-.5-.4h-.6v-.4h-.2v-.2h.1v-.2h-.2l-.3-.5-.3.5v-.4h-.2v-.4h-.3l-.4-.7v-1.5l-.2-.8v-.8l-.5.8v.4l-.4.3h-.3v-.5h.5v-.8h.2v-.6h-.5v-.1h.8v-.2h-.6v-.8h-.5v-.4h-.2v-.3l-.3-.5h-.2v-.4h-.2v-.4h-.7v-.4h-.2v-.3l-.5-.4-.3-.4h-.2v-.4h-1v-.3l-.3-.5h-.7v-.4h-.2v-.3l-.2-.8-.2-.4v-.4l-.2-.4v-.6h.2v-.6h-.2v-.4h-.3l-.2-.3v-.4h-.3l-.5-.8h-.2v-.4h-.7v-.4h-.5l-.2-.4h-.3l-.5-.4h-.2v-.4h-.5v-.4h-.8l-.5-.8h-.3l-.9-.7-.5-.8-.5-.4v-.4h-.2v-.1h2.8l.8-.4h.7v-.2h-3.6l-.7.3-.2-.3-.5-.4-.3-.4h-.2v-.4h-.5v-.7l-.5-.9h-.2v-.2h-.5v.1l-.3-.8h-.2v-.5h.7l-.7-.5.2-.3v-.7h.5v-.4h.4l.5-.4h.2l.6.5v-.1h.2v.3l.2-.3h.1v-.1l.2-.3h1.8l-.4-.6h-1.7l-.7-.4H402l-.8.4h-.5l-.2.4h-1l-.3.4-.4.3h-.3v.4h-.2v.5l-.2.3h-.3v.4h-.2v.4h-.2v.1l-.2.3v-.4h-.5v-.4h-.5v.4h-.6v.2h.1v.1h-.2v.1-.1h-.5v.1-.1h-.7v.4h-.9v.1-.1h-.4v.1-.1h-.4l.2-.3-.3-.5h-.2v-.4h-.7l-.2.4h-.5v.4h-.2l-.2.4h-.3v.4h-.2l-.2.4h-2.2l-.2.3-.4-.6v.7h-2.4v-.4h-2.4v-.3h-.2v.3h-2.6v-.7l-.2.4v-.2h-4.9l-.2-.4h-.7v-.4h-.7v.4h-.7v.1h-.2v.3h-.5v.4h-.5v.4h-.4l-.2.4h-.8v-.2h.7l.2-.4h.3v-.8h.3l-.2-.4v-.2h-.1v-.4h-.2v-.5h.2l.4-.6h-1.2v.2h.1v.1h-1.2.5v-.6h-1.7l-.2-.4h-.4v-.4h-1l-.2-.4h-.7v-.4h-.8l-.2-.4h-.9v-.4h-.5l-.2-.4h-.2v-.4h-.5v-.4h-.5v-.4h-.6l.2-.4h-.4l-.2-.4h-.5l-.5-.8h-1l-.2-.4h-.4v-.4h-.5v-.4h-.2v-.6h-.2v-.3h-.2v-.1h-.2v-.4h-.5v-.4h-1.3l-.2-.4h-.7v-.4h-.2v-.3h-.2l-.1-.1h-.2v-.4h-.2v-1.2h-.5v-.4h-.2v-.4h-.2v-.4h-.2v-.4h-.2v-.4h-.3l-.2-.4h-.2l-.2-.4h-.4v-.4h-.5v-.4h-.5l-.2-.4h-.3l-.9-.7-.3-.4h-.3l-.5-.4h-.5l-.5-.4h-1.7l-.2-.4h-.5v.2h.1v.1h-1v.4h-1v.1l-.2-.4v.7h-.8l.2.4h-.9v.4h-.6l-.5-.4h-.3v.2h.2l.5.4h.2l.1.1h-.6v.8h-.8l-1.1.3v-.7h-.2v-.3h-.2v-.1h.1l-.1-.2v-.1h-.1l-.2-.4h-.2v-.4h-.3l-.2-.3v-.1h-.1l-.2-.3v-.1h-2.5l-.2-.4H329v.4h-1v.4h-.4l-.2.4h-.5l-.2.4h-.2l-.2.4h-.2l-.2.4h-.3v.4h-.2v.4h-.2v.5l-.2.4v.4l-.5.8v.3h-.2v.4h-.2l-.2.4h-.3v.4h-1.1v.1-.1h-.5v.4h-.2l-.2.4h-.3v.4h-.9l-.2.4h-.2l-.5.4-.2.4h-.2l-.2.4h-.3v.4h-.7v.5l-.2.3h-.3v.4h-.2l-.2.4h-.5v-.4h-.5v.5l-.3.5h.6v.4h.2v.8h.2v.2l-.2.4v.3h-.2v.4h-.2v.4h-.7v.4l-.2-.4h-.4l-.2.4h-.2v.2h.1v.4h.5v.2l-.2.4v.3h-.7v.4h-.2v.4h-.2v.5l-.2.3h-1v.4h-1.7v.4h-1v.4h-1.2v.4h-.5v.4h-1.2v.4h-1.2v.4h-1.2v.4h-.5v-.4h-.5v.8h-.2v-.4h-.2v-.4h-.9l-.2.4h-.5v.4h-.2v.4h-.2v.4h-1v.4h-.7v.4h-.5v.4h-.2l-.2.4h-.7l-.2.4v-.1h.1v-.2h-.4v.4h-.7v.4h-.5v-.4h-.5v.4h-1.4v-.1h.1v-.2h-.4v.8l-.2-.4v.4l-.2-.4v.7h-.7v.4h-.7l-.2.4v-.4h-.5v.8h-.2v1.5h-.2v-.4h-.3l-.2-.4h-.2v-.4h-3.4l-.2-.4h-2.3l-.2.4h-1v-.4h-.6v.2h.2l.1.1h-.7v.2h1.1v.1h-.6v.2h.1v.1h-.7l-.2.4v-.4h-.5v.4h-.2v.1-.1h-.5v.4h-.7v.4h-.7v.4h-.7v.4l-.4.3h-.2l-.8.4-.2.4h-.2l-.2.4h-.5v.4h-1v.4h-.1v.2l-.1.1h-.5l-.2.4h-.3v.4h-.9l-.2.4h-.5v.4h-.2v.4h-.5v.4h-.4l-.2.4h-.2l-.2.4h-.5v-.3h-.2v.3h-.2v.5l-.2.3h-.2l-.2.4h-.1l-.4-.7v.7h-.2v.4h-1v.4h-.5v.4h-.2v-.4h-.2v-.3h-.2v.6h-.4l-.2.4h-1l-.2.4h-1v.4h-1.1l-.2.4h-.5v.4h-5v-1h-.2v.3h-2.6v.4h-2.5l-.5-.4h-.9v-.4h-3.1v.4h-.4l-.2.4h-.5v.4h-.5v.4h-.2v.4h-.7v.4h-.4l-.2.4h-.5v.4h-.2v.4h-.2v.4h-.2v.4h-.2v.4h-.3l.3.5v3l-.2.4v1.2l-.2.3h-.1l-.4-.7v1.1h-.2v.4h-.2v.4h-.2v.4h-1.7v-.7h-.6l.2.4v.2h.1v.4h.2v.2l-.2.8v.7h-.1v.2h.1v.5h-.2v.8h-.2v.9l-.2.4v.4l-.2.3h-.3v.5l-.4.7h-.3v.4h-.2l-.2.4h-1.4l-.2.4h-1v.4h-1.7v.4h-1v.4h-1v.4h-.7v.4h-.4l-.2.4h-.9v.2h.1v.1h-.2v.5l-.2.4v1.7h.2v.3l.2.4v.8l.2.4v.3l-.2.3h-.2l-.2.4h-1v.4h-.9l-.2.4H223v.4h-1.7v.9l.4-.7h.3v.4h.8l.2.4h.7v.4h.8l.2.3v.5h2.4v-.4h2.1l.2-.4h.5l.2-.4h.8v-.4h1v-.4h5.3v-.4h1.2v-.4h1.2v-.4h.7v-.4h.7l.2-.4v.7l.4-.7h1.7l.2-.4h1.4l.2-.4h1.4l.2-.4h3.7v-.1.1h1.2v-.4h.2v-.6l.2-.3h1.3l.2.3-.3.5h2.1l.2.4h1.8l.2-.3.2.3h.4v-.1l.2.4v-.3h1.9v.1h-.1v.2h1.3v.4h1.4v.4h.2v.4h.3l.2.3.5.4h.2v.4h.5v.4h.7v.3l.5.4.3.4h.2l.5.8h.2v.4h.3l.2.8h.3l1 1.5h.2v.4h.3l.6.9v.2h.1v.1h-.1v.2h.4v.8h.5v.4h.7v-.4l.2.4h.8l-.2.4h.5v-.1.1h.7v.4h.3l.2.4h.2v.3l.3.5h.2v.1h-.1v.2h.2l.2.4h.2v.3l.3.5h.4v.4h.3l.7.8h.2v.4h.5v.4h.5v.4h1l.2.4h.5l.2.4h.7v.4h.5v-.1.1h1.4v.4h1.1l.7.4.3.4h.4v.4h.5v.4h1l.2.4h.2l.4.7v-.7h.3l.2.4h.4v.4h1.3l.2.4h1.1v.4h1l.2.4h1l.2.4h.3l.7.8h.5l.2.4h.2l.2.4h.5l.2.4h.2l.2.4h.2l.2.4h.5l.5.8h1.1v.4h1l.5.4h.2l.2.4.7.4.3.4h.2v.4h.5l.2.4h.2l.5.7.7.4.3.4h.2v.4h.3l.2.4h.2l.2.4h.2l.2.4h.2v.4h.3l.2.4h.2l.2.4h.2l.2.3.5.4h.2l.5.8h.2v.4h.3l.2.4h.2v.4h.3l.2.4h.2v.3l.5.8v.5h.3l.5.8h.2v.4h1v.3h.2v-.3h.6l.5.4h.5l.5.4h.5l.2.4 1.4.8.3.4h.4v.4h.5l.2.4h.5l.2.4h.2l.2.4h.2v.4h.5v.4h.5l.2.4h.2l.2.4h.2l.2.3.5.4v.4h.2v.4h.3l.2.4h.2v.4h.5l.2.4h.2v.4h.5v.4h.3l.2.4h.2v.4h.3l.7.8h.2v.4h.3l.2.3.5.4.2.4.8.4h.2l.2.3.5.4v.4h.3l.2.3v.4l.5.9h.2v.4h.3l.4.7.5.4v.4h.3l.2.3v.5h.2v.4h.2v.4h.2v.4h.2v1.4l.3.4.5.4h.9v.4h.3l.2.4h.7l.2.4h4l.2-.4h.5l.2-.4h1v-.4h.5v-.4h.1l.5.4h.2v.1h-.1v.2h1.7l.2-.4h.3v-.4h.2v-.4h.2v-.4h1.4v-.4h.9v-.1.1h2.6v-.4h.7v.4h2.9v-.4h1v-1.3h1v-.4h.9l.2-.4h.5l.2-.4h.9l.5-.4h.5l.2-.4h.8v-.8h.9l.2-.4h.3v-.4h1.7v-.4h.2v.3l.4-.7h.7l.2-.4h.5v-.2h.5v-.1h.1v.1h.4v-.1l.2-.3v.1h-.1v.2h.5l.2-.4h.5l.2-.4h.2l.5-.4h.3l.2-.4h.5v-.4h1.2v-.4h.5v-.4h.5v-.1h2.1l.2-.4h.3v.4h1.1v-.2l.1-.1h.2l-.1.2.2.1.2-.3h.6l-.2-.4h.6v-.4h.5v-.4l.2.4h.4v-.4h1.2v-.5h.2v-.4h1.1v-.1.1h.4l.2-.4h.3v-.4h.4l.2-.4v.4h.5l.2.3v-.4h.2v-.6h.2l.5-.8h.2l.3-.5v-.3h.2v-.4h.2v-.8h.2v-.3h.2v-.5l.2-.4v-.3h.2v-.4h.5v-1.8h-.2v-.4h-.2v-.8h-.2v-.4l.2-.4v-.3h.2v-.4h.2v-.4h.2l.5-.4.3-.4v-.7l.4.7v-.9h-.5v-.1h.3l-.3-.5v-.6h.5v-.6l-.6-.4h-.2v-.8h-.2v-.8l-.2-.4v-1.1l.2-.4v-.4l.2-.4v-.3l.2-.4.3-.8v-.8l.2-.4v-.4l.2-.4v-.4l.5-.8v-.3h.1v-.2h-.1v-.1h.2v-2.7h.2v-1.6l.2-.4v-.3h.2v-.5l.2-.3h.3v-.5l.2-.3h.3v-.5l.9-1.4h.3v-.5l.2-.4v-.3h.2l.5-.8h.3v-.4h.2l.2-.4h.2l.5-.4.5-.7h.5v-.4h.2l.2-.4h.2l.2-.4h.2l.2-.4h.2l.2-.4h.2l.2-.4h.2l.2-.4h.5l.2-.4h.2l.2-.4h.2l.2-.4h.2l.2-.4h.5l.2-.4h.5l.5-.4.7-.4h.3l.5-.4h.2l1.2-.6h-.2l.3-.1h1.1v-.4h.8l1.2-.4 1.4-.4 1.2-.4h.7l.5-.4h.9l.5.4h4.7v-.4h.5v.1h.2l.2-.4h.3v-.4h.2v-.6h-.7v-.9h.2v-.5l.7-1.1h.2l.2-.4h.2l.8-.4.4-.4h.3l.2-.4h2.7v-.4h.1l.8-.4h.6v-.4h.2l.2-.4h.7l.4-.6h-1l-.3.4-.4.3h-1.3v-.1h.4l.2-.4h.5v-.4h.2v-.4h.7v.4h.5v-.1l.1.2.3-.5h.7l.2-.4h.9v-.2h-.1v-.4h-.2v-1.3h.2v.4h.2v.4h.2v.4h.2v.6h.2v-.3h.2v-.9h.2l.3-.5v-.3h.2l.2-.4h.5v-1h-.5l-.1-.4zm-130.3-32v-.4h.9v.1h-.1v.2h.1v.1h-.9l-.1.4h-.2v-.4h-.1l.1-.1h.3v.1zm122.9 38.2zm-25.7-35.9h.2v.1l-.2-.1zm-.2-1.1l.1.2-.2.4v-.1h-.2v-.1h.2v-.6h-.2v-.1h.4v-.1.1h.2v.1h-.4l.1.2zm-1.3-.4h.2v-.4l.3.5v.1h-.5v-.2zm19 13.7l1.2 2h.2v.4h.2v.3l.3.4.5.4.2.3v.2h-.3l-.2-.4h-.2v-.4h-1v-.4h-.3l-.2-.3v-.9h-.2v-.5l-.2-.4v-.7z"/><path class="regions" d="M421 999.7h.7l.2.4h.5v-.4h.1v-.2H421z"/></g><a id="region-isle-of-wight" xlink:href="/tags/isle-wight" target="_parent"><circle class="pin" cx="338" cy="1017" r="17"/><path class="rect" d="M269.3 965H419v21.6H269.3z"/><text transform="translate(274.34 984.948)" class="text">Isle of Wight</text></a><a id="region-oxfordshire" xlink:href="/tags/oxfordshire" target="_parent"><circle class="pin" cx="279.6" cy="325.1" r="17"/><path class="rect" d="M212.6 273.1h130.7v21.6H212.6z"/><text transform="translate(223.561 293.054)" class="text">Oxfordshire</text></a><a id="region-buckinghamshire" xlink:href="/tags/buckinghamshire" target="_parent"><circle class="pin" cx="476.1" cy="235.1" r="17"/><path class="rect" d="M380.6 183.1h197.5v21.6H380.6z"/><text transform="translate(397.552 203.059)" class="text">Buckinghamshire</text></a><a id="region-east-sussex" xlink:href="/tags/sussex" target="_parent"><circle class="pin" cx="1020.1" cy="850" r="17"/><path class="rect" d="M952.4 798h134.7v21.6H952.4z"/><text transform="translate(964.356 818.028)" class="text">East Sussex</text></a><a id="region-west-sussex" xlink:href="/tags/sussex" target="_parent"><circle class="pin" cx="642.1" cy="874" r="17"/><path class="rect" d="M572.1 817.7h141.5v21.7H572.1z"/><text transform="translate(585.088 837.695)" class="text">West Sussex</text></a><a id="region-hampshire" xlink:href="/tags/hampshire" target="_parent"><circle class="pin" cx="357.6" cy="850" r="17"/><path class="rect" d="M298.1 793.7h121v21.7h-121z"/><text transform="translate(309.103 813.697)" class="text">Hampshire</text></a><a id="region-surrey" xlink:href="/tags/surrey" target="_parent"><circle class="pin" cx="666.6" cy="623.5" r="17"/><path class="rect" d="M629.9 571.5h73.2v21.6h-73.2z"/><text transform="translate(633.874 591.54)" class="text">Surrey</text></a><a id="region-kent" xlink:href="/tags/kent" target="_parent"><circle class="pin" cx="1164.6" cy="640" r="17"/><path class="rect" d="M1138.8 588h51.2v21.6h-51.2z"/><text transform="translate(1142.85 608.038)" class="text">Kent</text></a><a id="region-berkshire" xlink:href="/tags/berkshire" target="_parent"><circle class="pin" cx="353.1" cy="620.5" r="17"/><path class="rect" d="M296.6 568.5h110.5v21.6H296.6z"/><text transform="translate(306.557 588.539)" class="text">Berkshire</text></a></svg>